<?xml version="1.0" standalone="no"?>
<!DOCTYPE svg PUBLIC "-//W3C//DTD SVG 20010904//EN"
 "http://www.w3.org/TR/2001/REC-SVG-20010904/DTD/svg10.dtd">
<svg version="1.0" xmlns="http://www.w3.org/2000/svg"
 width="1094.000000pt" height="1280.000000pt" viewBox="0 0 1094.000000 1280.000000"
 preserveAspectRatio="xMidYMid meet">
<metadata>
Created by potrace 1.15, written by Peter Selinger 2001-2017
</metadata>
<g transform="translate(0.000000,1280.000000) scale(0.100000,-0.100000)"
fill="#000000" stroke="none">
<path d="M7062 12782 c-54 -54 -175 -270 -228 -407 l-23 -60 -1 78 c0 42 -4
77 -9 77 -13 0 -38 -71 -56 -156 -8 -39 -23 -87 -34 -105 -27 -47 -49 -127
-67 -243 -8 -55 -17 -102 -19 -105 -9 -8 -5 193 5 282 6 48 24 131 41 183 31
96 32 117 5 95 -37 -31 -207 -486 -255 -681 -53 -218 -87 -460 -64 -460 13 0
27 51 53 190 33 180 122 520 149 568 4 8 8 -116 7 -275 0 -227 5 -333 22 -503
25 -240 27 -384 8 -510 l-13 -85 -2 65 c-4 215 -60 568 -100 630 -22 34 -23
-7 -2 -113 26 -134 45 -327 62 -614 l12 -212 -41 -108 c-41 -108 -65 -187 -77
-253 -7 -39 -75 -155 -90 -155 -6 0 -12 84 -15 210 -5 205 -6 211 -34 275
l-29 65 -1 295 c-1 197 -5 301 -12 314 -10 17 -12 15 -17 -15 -3 -19 -9 -140
-12 -269 -7 -249 -21 -374 -61 -554 -71 -317 -125 -501 -191 -656 -25 -58 -48
-128 -52 -156 -7 -50 -25 -86 -87 -174 -17 -25 -40 -58 -50 -75 -36 -58 15 -6
79 80 72 98 117 184 117 227 0 18 12 58 26 88 72 153 115 293 174 560 40 183
59 250 70 250 22 0 44 -69 48 -147 8 -156 -34 -346 -88 -397 -24 -22 -28 -31
-19 -42 6 -8 20 -14 30 -14 25 0 25 -4 -15 -107 -110 -289 -235 -464 -565
-794 -130 -129 -257 -258 -282 -286 -55 -61 -149 -114 -149 -84 0 4 49 61 109
124 105 111 110 118 104 151 -5 30 1 44 40 98 25 35 84 105 132 157 86 94 111
128 102 138 -14 13 -57 -16 -142 -96 -143 -132 -197 -176 -237 -195 -20 -10
-85 -63 -143 -118 -58 -55 -109 -98 -112 -94 -8 8 158 226 225 294 52 54 59
76 27 88 -22 9 -55 -25 -101 -99 -52 -87 -196 -278 -264 -351 -70 -75 -94
-110 -109 -158 -12 -36 -53 -74 -393 -365 -45 -39 -68 -52 -68 -38 0 9 101
168 221 345 135 201 233 315 450 524 152 147 144 155 -21 18 -182 -150 -344
-329 -516 -567 -97 -134 -134 -178 -134 -159 0 5 43 86 96 179 144 254 169
312 120 280 -13 -8 -30 -13 -39 -9 -8 3 -25 1 -36 -6 -12 -6 -21 -8 -21 -5 0
4 20 47 45 97 64 129 60 153 -11 71 -25 -28 -45 -44 -52 -39 -7 4 -12 30 -12
59 l0 52 -24 -50 c-17 -37 -36 -58 -74 -83 -56 -36 -69 -60 -50 -92 12 -19 9
-25 -25 -56 -21 -20 -45 -33 -52 -30 -17 6 -65 -48 -65 -75 0 -14 -7 -19 -25
-19 -14 0 -28 -7 -32 -15 -3 -9 -18 -28 -32 -43 -64 -64 -253 -443 -327 -655
-70 -202 -139 -336 -160 -314 -9 9 40 171 97 326 63 170 250 551 363 740 47
79 149 238 226 353 135 203 163 252 119 212 -38 -34 -356 -505 -479 -709 -93
-155 -240 -436 -240 -460 0 -8 -26 -77 -58 -152 -33 -76 -65 -160 -72 -188
-17 -66 -82 -206 -104 -224 -16 -13 -17 -12 -11 15 36 154 206 615 287 778 16
32 27 60 25 63 -3 2 -18 -15 -35 -39 -103 -150 -287 -610 -342 -856 -34 -153
-172 -572 -269 -817 l-20 -50 5 135 c4 104 3 131 -6 117 -21 -33 -84 -359
-110 -568 -11 -97 -27 -149 -43 -149 -14 0 -2 243 23 450 25 206 25 263 4 281
-13 11 -15 25 -10 72 8 76 -8 65 -28 -20 -34 -147 -116 -655 -148 -918 l-13
-110 -7 115 c-6 114 -19 170 -37 170 -18 0 -22 -41 -31 -340 -5 -168 -10 -307
-10 -310 -1 -3 -23 60 -50 140 -26 80 -55 163 -64 185 -18 48 -21 198 -6 365
10 109 53 472 66 553 3 22 2 37 -4 37 -15 0 -37 -107 -73 -360 -30 -203 -33
-249 -33 -465 -1 -132 3 -258 7 -280 8 -36 10 -38 22 -22 11 16 14 9 19 -55 3
-40 8 -206 10 -368 3 -162 9 -313 12 -335 4 -22 4 -38 1 -35 -3 3 -17 64 -31
135 -15 72 -54 229 -89 350 l-62 220 1 305 c1 169 9 411 19 543 9 132 14 241
12 243 -9 9 -46 -151 -62 -261 -20 -147 -35 -369 -35 -540 0 -148 -12 -206
-23 -113 -4 29 -9 163 -12 298 -7 291 -13 376 -27 362 -5 -5 -14 -72 -19 -148
-5 -77 -15 -170 -21 -209 l-12 -70 -17 90 c-30 160 -117 427 -149 459 -15 15
-13 -8 11 -94 86 -319 105 -428 164 -960 38 -335 46 -380 74 -420 28 -40 39
-82 76 -289 45 -245 97 -474 135 -587 17 -48 28 -90 25 -92 -15 -15 -145 353
-198 563 -43 167 -76 334 -117 587 -29 181 -47 259 -50 213 0 -11 -1 -94 -1
-185 0 -176 -9 -276 -21 -230 -4 14 -23 123 -42 243 -44 265 -99 529 -129 606
-32 86 -32 40 2 -141 35 -184 51 -295 81 -553 59 -493 130 -786 285 -1160 129
-313 155 -379 151 -382 -8 -8 -114 202 -160 314 -116 284 -258 765 -290 983
-12 86 -32 112 -30 40 0 -22 -3 -40 -7 -40 -14 0 -29 37 -29 69 0 39 -17 84
-30 76 -5 -3 -10 -18 -10 -33 0 -45 -11 -74 -26 -68 -18 7 -18 -19 0 -47 8
-12 29 -92 46 -177 34 -168 119 -508 144 -579 9 -24 14 -46 11 -49 -16 -16
-72 112 -157 358 -51 146 -93 250 -102 250 -2 0 -3 -8 -1 -17 10 -48 13 -137
5 -122 -5 8 -36 125 -70 258 -58 234 -106 371 -130 371 -14 0 -9 -25 40 -245
63 -275 69 -321 55 -390 -5 -22 1 -44 24 -85 60 -111 72 -142 86 -216 30 -156
95 -353 170 -515 41 -89 73 -164 71 -166 -2 -2 -28 34 -58 79 -157 239 -212
356 -238 513 -11 66 -29 152 -40 191 -21 76 -137 344 -150 344 -4 0 17 -75 47
-168 46 -141 103 -348 103 -374 0 -23 -22 -2 -50 47 -35 61 -55 73 -38 23 19
-59 133 -290 208 -423 153 -272 173 -315 147 -315 -17 0 -50 47 -110 154 -47
86 -61 99 -72 66 -4 -12 -12 -19 -18 -17 -7 2 -58 93 -115 203 -103 200 -150
280 -158 271 -2 -2 17 -53 42 -113 26 -60 77 -194 114 -299 78 -218 107 -287
148 -347 41 -62 44 -68 33 -68 -29 0 -88 87 -200 300 -46 85 -118 208 -162
273 -44 65 -114 180 -156 255 -41 75 -121 211 -176 302 -87 146 -99 171 -101
215 -2 38 -31 121 -118 340 -115 287 -190 498 -204 572 -10 60 8 30 61 -97 86
-209 221 -456 232 -424 2 6 -19 65 -48 130 -138 316 -263 692 -314 944 -34
168 -55 229 -82 247 -18 12 -23 25 -23 62 -1 61 -15 130 -29 144 -18 18 -29
-7 -37 -83 l-8 -65 -12 121 c-8 83 -17 129 -29 148 -14 21 -19 53 -22 134 l-3
107 28 -80 c15 -44 40 -100 55 -125 14 -25 40 -85 58 -135 35 -101 73 -180 90
-191 25 -15 39 28 39 120 0 56 4 85 9 76 5 -8 36 -134 70 -280 33 -146 65
-280 71 -299 l10 -34 -30 28 c-17 16 -30 23 -30 17 0 -46 183 -442 207 -450 7
-2 18 7 24 20 9 20 5 39 -20 104 -78 202 -111 369 -75 381 11 4 62 -98 119
-242 67 -167 389 -766 438 -815 14 -14 34 -33 45 -43 20 -18 43 -89 62 -186
10 -56 26 -85 41 -75 16 10 9 121 -12 190 -36 117 -148 392 -224 549 -64 133
-160 284 -186 293 -14 5 21 -75 93 -218 98 -192 216 -480 198 -480 -26 0 -346
625 -428 837 -29 73 -72 179 -96 236 -81 189 -108 328 -87 437 10 48 9 99 -4
265 -9 113 -15 210 -13 217 2 6 14 -16 27 -50 12 -34 28 -62 35 -62 33 0 49
28 60 104 6 42 16 78 21 79 6 1 20 -38 32 -88 35 -140 43 -166 53 -160 14 9
12 97 -5 221 -16 107 -14 154 5 154 23 0 40 -178 40 -417 0 -229 6 -263 96
-570 94 -321 113 -323 39 -3 -45 195 -49 218 -37 233 6 6 12 26 14 42 2 24 10
7 36 -75 19 -58 46 -124 62 -147 15 -23 51 -95 80 -160 102 -228 148 -319 194
-378 58 -74 89 -167 122 -370 39 -243 48 -286 59 -283 17 5 9 164 -14 293 -40
219 -157 655 -183 680 -7 7 -9 2 -5 -15 19 -88 49 -291 44 -297 -10 -9 -7 -15
-77 162 -119 302 -290 806 -290 855 0 11 5 39 11 62 9 34 8 93 -5 268 -19 263
-20 395 -5 546 19 185 47 277 155 494 218 439 325 764 340 1030 9 163 -14 335
-42 307 -13 -13 -46 -149 -74 -312 l-30 -170 -84 -170 c-72 -145 -96 -183
-164 -260 -99 -113 -179 -188 -195 -182 -16 5 -20 73 -9 182 10 104 4 140 -23
140 -21 0 -26 -16 -44 -153 -12 -92 -68 -271 -105 -335 -14 -23 -28 -62 -32
-87 -8 -55 -33 -106 -89 -185 -109 -154 -192 -373 -219 -576 -8 -60 -19 -116
-26 -123 -8 -10 -8 -41 0 -118 15 -153 17 -325 4 -338 -22 -22 -234 204 -234
248 0 5 -14 27 -30 48 -17 22 -45 61 -63 88 -33 50 -124 129 -164 141 -20 6
-23 3 -23 -23 0 -16 7 -51 15 -78 8 -27 20 -76 25 -109 19 -102 70 -275 120
-400 50 -127 74 -237 68 -320 -2 -37 -7 -51 -20 -53 -23 -4 -48 47 -48 98 0
28 -6 45 -20 58 -17 14 -19 24 -14 59 5 35 3 43 -16 53 -11 6 -31 10 -43 8
-36 -5 -42 -44 -26 -175 22 -188 18 -547 -9 -706 -21 -120 -21 -141 -12 -340
13 -253 24 -357 44 -414 8 -24 29 -109 46 -190 22 -101 45 -177 72 -238 56
-125 118 -291 118 -317 0 -22 0 -22 -14 -2 -20 29 -161 359 -177 414 -7 25
-22 56 -35 70 -12 14 -29 41 -37 60 l-15 35 -1 -80 c-1 -93 21 -270 42 -335 8
-25 44 -90 81 -145 37 -55 96 -158 132 -230 36 -71 76 -148 89 -170 13 -22 27
-52 30 -67 l7 -27 -39 19 c-21 10 -48 29 -59 42 -26 27 -64 97 -64 116 0 16
-71 140 -97 168 -11 12 -25 34 -31 50 -7 16 -28 52 -47 79 -22 31 -50 98 -76
177 -22 71 -44 128 -49 128 -35 0 -41 -125 -9 -184 11 -22 36 -84 55 -138 54
-155 202 -465 259 -542 18 -24 45 -14 45 16 0 13 -21 59 -46 103 -86 150 -151
285 -136 285 11 0 68 -94 192 -315 62 -110 139 -244 172 -298 63 -104 102
-186 93 -195 -3 -3 -6 -3 -8 -1 -17 24 -126 155 -162 194 l-46 50 28 -50 c15
-27 60 -101 100 -163 40 -62 73 -115 73 -119 0 -3 -10 3 -23 14 -34 31 -65 45
-72 33 -4 -6 -1 -17 5 -25 8 -9 8 -15 2 -15 -24 0 -160 161 -206 246 -26 49
-72 121 -102 160 -30 39 -54 76 -54 82 0 7 -4 12 -10 12 -11 0 5 -45 54 -155
l36 -80 -43 50 c-23 27 -59 67 -80 90 l-38 40 20 -52 c33 -92 71 -146 170
-243 54 -52 124 -131 156 -175 32 -44 126 -150 209 -235 83 -86 194 -205 246
-265 52 -60 266 -281 475 -491 345 -346 486 -476 501 -461 3 2 -48 62 -113
132 -134 144 -168 184 -161 190 2 2 33 -14 69 -35 35 -22 73 -40 84 -40 36 0
91 -42 265 -205 216 -201 256 -231 328 -246 31 -6 79 -23 107 -37 62 -31 258
-162 252 -168 -2 -2 -38 12 -80 32 -50 23 -101 39 -147 45 -113 14 -322 120
-360 182 -21 34 -170 125 -220 133 -19 3 -53 15 -75 26 -39 20 -222 141 -354
233 -62 44 -81 53 -81 38 0 -5 54 -66 121 -138 225 -243 302 -342 227 -293
-13 9 -77 66 -143 127 -66 61 -122 111 -126 111 -3 0 -4 -12 -1 -27 l5 -26
-31 21 c-67 49 -365 384 -388 437 -17 42 -25 47 -45 29 -24 -21 -36 -13 -155
96 -93 85 -114 101 -114 82 0 -16 108 -139 151 -172 81 -62 108 -93 125 -142
9 -27 32 -69 51 -94 28 -38 31 -45 14 -39 -28 8 -27 -6 3 -53 28 -45 43 -57
78 -66 15 -3 80 -46 145 -94 65 -49 159 -116 209 -149 110 -74 184 -153 143
-153 -47 0 -302 182 -416 297 -80 81 -99 90 -89 41 8 -38 75 -127 128 -170 47
-37 44 -47 -6 -17 -28 16 -36 18 -36 7 0 -18 89 -68 119 -68 27 0 101 -38 161
-81 52 -38 40 -50 -20 -19 -23 12 -44 19 -47 16 -12 -12 22 -36 126 -90 59
-31 135 -78 167 -104 93 -75 141 -105 259 -164 111 -56 196 -81 470 -138 145
-31 207 -50 230 -70 27 -25 138 -57 234 -69 44 -6 130 -24 193 -42 101 -28
131 -32 286 -36 158 -5 172 -7 172 -24 0 -22 28 -27 255 -37 143 -7 173 -6
188 6 23 20 21 31 -8 42 -18 7 -25 17 -25 35 0 15 -5 35 -11 47 -15 28 -86 58
-124 51 l-30 -6 28 31 c27 29 28 31 13 54 -30 46 -59 53 -190 50 -139 -3 -306
6 -306 18 0 4 71 10 158 13 193 7 236 17 180 42 -13 6 -36 36 -53 71 -41 83
-131 205 -239 326 -162 180 -236 276 -236 303 0 17 98 -79 146 -143 30 -39 56
-72 59 -72 12 0 45 46 45 63 0 10 -14 51 -31 90 -64 146 -176 515 -203 673 -9
48 -18 89 -21 92 -12 12 -3 -150 14 -241 17 -95 13 -127 -8 -66 -12 36 -76
457 -86 564 -8 91 -13 115 -25 115 -13 0 -13 -172 0 -280 9 -72 27 -195 45
-302 7 -43 -11 -33 -29 15 -48 128 -106 489 -141 877 -20 220 -24 250 -37 250
-14 0 -4 -317 17 -515 18 -170 19 -217 4 -193 -11 20 -34 191 -49 378 -14 165
-28 262 -41 274 -5 6 -9 153 -9 359 0 260 -3 354 -12 370 -23 40 -14 308 16
493 27 169 35 305 15 271 -6 -10 -24 -82 -40 -160 -20 -96 -41 -165 -64 -212
-19 -38 -44 -110 -56 -158 -12 -48 -23 -86 -24 -85 -2 2 0 55 4 118 4 63 4
126 0 140 -5 22 -8 18 -22 -30 -19 -64 -40 -170 -67 -331 l-20 -114 5 155 c5
178 34 336 84 463 17 43 31 84 31 92 0 23 -20 28 -41 9 -20 -18 -20 -18 -17
36 l3 55 47 -3 c39 -3 49 0 60 17 20 32 23 26 21 -36 l-3 -58 25 50 c14 28 43
108 66 180 23 71 54 163 70 203 30 75 36 108 19 97 -16 -10 -58 -99 -105 -223
-44 -115 -51 -129 -60 -121 -11 11 33 138 126 360 55 132 102 254 105 272 6
31 5 30 -21 -13 -49 -82 -187 -367 -226 -469 -20 -50 -19 -10 0 74 57 237 305
730 501 994 39 51 70 98 70 103 0 34 -126 -103 -312 -342 -98 -126 -138 -171
-138 -157 0 3 38 70 85 149 76 127 81 138 44 98 -39 -42 -96 -125 -161 -234
-15 -25 -32 -46 -38 -46 -6 0 -10 27 -10 66 0 71 -6 61 87 145 16 15 35 45 41
68 10 31 25 50 65 80 29 21 89 78 133 127 43 48 157 172 252 274 96 102 183
199 195 215 l21 30 -31 -25 c-17 -14 -88 -78 -158 -142 -69 -65 -131 -118
-138 -118 -7 0 14 23 45 50 56 50 148 163 148 182 0 12 -47 -21 -139 -99 -41
-35 -78 -63 -83 -63 -13 0 -10 22 13 96 27 87 55 143 84 166 25 19 77 106 170
281 31 60 59 106 62 104 2 -3 -23 -74 -55 -158 -75 -191 -75 -193 -39 -197 22
-3 46 10 105 55 97 74 249 220 239 229 -8 9 -33 -8 -184 -128 -62 -50 -117
-88 -123 -86 -14 4 26 82 58 113 15 15 68 53 117 85 50 33 115 82 145 110 l55
51 -35 -6 c-19 -4 -45 -9 -57 -12 -38 -9 -26 13 25 45 58 38 122 96 122 111 0
14 -25 14 -53 0 -16 -8 -13 -2 12 24 18 20 60 50 93 67 32 17 109 71 171 119
144 113 211 157 338 226 179 99 269 169 269 214 0 32 24 63 70 90 44 26 69 27
78 1 7 -19 12 -18 92 30 46 28 95 57 109 65 15 7 152 41 306 75 275 61 336 80
262 80 -20 0 -37 4 -37 9 0 14 71 38 212 71 144 34 164 36 184 16 16 -17 62
-13 179 15 114 28 275 81 275 91 0 15 -46 9 -163 -22 -126 -33 -137 -34 -137
-21 0 16 66 41 232 87 208 59 373 111 418 134 47 24 70 27 98 11 29 -15 90 2
193 55 36 19 77 34 91 34 14 0 33 9 43 20 19 21 55 27 55 10 0 -5 -5 -10 -11
-10 -5 0 -7 -4 -4 -10 8 -13 150 -13 200 1 53 14 205 91 275 139 173 118 354
351 490 631 80 164 58 168 -33 7 -78 -137 -97 -163 -97 -133 0 27 40 138 69
190 40 72 59 137 71 243 10 94 2 215 -20 291 -5 19 -14 102 -20 185 -14 187
-27 292 -40 317 -8 13 -21 19 -45 19 -46 0 -59 21 -89 144 -26 104 -40 132
-52 102 -12 -30 4 -207 26 -296 30 -118 32 -296 4 -267 -4 3 -15 66 -26 139
-29 203 -42 248 -127 432 -82 179 -161 373 -180 441 -6 22 -15 47 -21 55 -9
13 -11 13 -20 0 -21 -32 -8 -185 35 -410 13 -69 26 -143 29 -165 l6 -40 -25
48 c-71 132 -110 321 -150 719 -34 344 -50 425 -69 356 -25 -94 -32 -590 -10
-728 5 -33 4 -34 -11 -15 -41 51 -54 155 -65 525 -9 294 -17 390 -34 407 -13
13 -20 -10 -26 -90 -7 -90 -16 -119 -31 -96 -17 28 -8 123 31 325 51 263 46
294 -16 91 -34 -114 -54 -259 -61 -448 -5 -144 -4 -173 11 -210 10 -24 31
-111 47 -194 16 -82 54 -238 84 -345 70 -250 95 -395 95 -560 0 -200 -34 -350
-113 -505 l-36 -70 5 45 c12 107 35 271 48 345 16 83 20 276 7 308 -6 16 -9
16 -18 5 -16 -20 -22 -56 -33 -188 -7 -89 -18 -146 -40 -212 -42 -124 -126
-295 -171 -343 -20 -22 -76 -96 -124 -165 -146 -209 -339 -430 -375 -430 -6 0
-25 10 -41 23 l-31 22 -36 -45 c-59 -75 -352 -361 -440 -430 -45 -36 -106 -78
-135 -94 -29 -15 -83 -52 -122 -81 -38 -29 -106 -73 -150 -98 -127 -72 -332
-170 -346 -165 -9 3 27 47 94 117 66 68 116 130 128 157 11 24 24 44 28 44 5
0 73 43 151 95 127 85 180 111 180 88 0 -5 -9 -23 -21 -42 -29 -48 -19 -56 27
-22 49 35 109 66 144 74 14 4 39 25 56 49 17 24 102 119 188 211 190 205 213
234 198 249 -9 9 -21 1 -49 -32 -186 -214 -295 -320 -330 -320 -15 0 -14 2 24
59 13 19 23 47 23 64 0 29 -1 29 -82 -45 -120 -107 -173 -149 -262 -207 -130
-85 -132 -64 -8 86 117 142 165 226 258 453 53 126 99 204 167 278 94 105 145
178 203 297 94 193 128 350 145 660 7 110 13 202 15 204 12 13 17 -23 22 -146
2 -76 -1 -185 -7 -243 -29 -272 -41 -360 -54 -391 -26 -63 -30 -91 -12 -87 11
2 35 58 76 181 63 188 67 210 45 201 -10 -4 -8 7 7 38 19 38 22 59 21 173 0
150 -26 275 -75 362 -15 28 -33 71 -38 95 -5 24 -18 77 -27 118 -18 82 -44
140 -74 170 -39 39 -13 182 38 209 23 12 34 3 51 -42 6 -15 15 -27 21 -27 18
0 27 40 34 145 13 184 83 490 152 667 19 48 34 91 34 96 0 4 27 54 61 111 62
105 77 159 31 113z m605 -1559 c-3 -10 -5 -4 -5 12 0 17 2 24 5 18 2 -7 2 -21
0 -30z m57 -263 c19 -58 40 -120 47 -138 12 -28 12 -34 0 -41 -11 -7 -9 -33
13 -143 31 -163 32 -176 5 -204 -16 -17 -23 -43 -30 -106 -21 -209 -123 -361
-542 -812 -189 -203 -261 -285 -255 -291 6 -7 93 69 259 225 191 180 216 201
234 194 23 -9 89 38 189 135 100 97 162 185 206 293 l29 73 1 -92 c0 -89 -1
-93 -30 -123 -16 -17 -30 -37 -30 -44 0 -8 -48 -58 -107 -112 -60 -54 -154
-142 -210 -195 -171 -163 -437 -353 -551 -393 -23 -8 -86 -46 -140 -85 -112
-80 -232 -152 -280 -169 -59 -20 -32 7 68 70 131 82 212 150 375 313 159 158
227 239 345 410 46 66 107 146 137 178 87 95 195 341 223 507 18 105 16 308
-5 487 -25 222 -10 242 49 63z m-1037 -175 c-8 -111 -46 -308 -83 -427 -30
-95 -91 -234 -100 -225 -3 3 13 62 36 132 53 163 75 258 100 429 24 165 29
186 43 186 7 0 8 -32 4 -95z m1524 -582 c-10 -35 -68 -173 -81 -193 -21 -33
-9 14 26 104 33 81 50 116 60 116 1 0 -1 -12 -5 -27z m-835 -231 c-20 -55
-104 -201 -178 -309 -71 -102 -271 -326 -375 -419 -71 -63 -208 -175 -232
-189 -26 -15 7 25 203 244 201 224 314 361 373 451 92 139 190 260 212 260 6
0 5 -13 -3 -38z m764 -133 c-45 -124 -114 -257 -163 -317 -48 -58 -113 -109
-124 -98 -4 3 12 32 35 64 83 113 151 219 213 336 35 65 65 114 66 109 2 -6
-10 -48 -27 -94z m200 72 c0 -37 -21 -126 -31 -136 -9 -7 -10 8 -6 55 6 71 14
100 28 100 5 0 9 -8 9 -19z m-113 -273 c-2 -13 -4 -5 -4 17 -1 22 1 32 4 23 2
-10 2 -28 0 -40z m-669 -166 c-69 -83 -292 -272 -320 -272 -33 0 -18 29 27 53
17 8 71 50 120 92 184 156 219 182 173 127z m150 -68 c-51 -48 -81 -60 -56
-21 17 25 90 78 98 70 3 -2 -16 -24 -42 -49z m-1016 -141 c-59 -70 -121 -128
-128 -120 -4 4 31 45 76 92 89 91 119 107 52 28z m785 3 c-25 -33 -161 -160
-220 -206 -53 -42 -40 -11 24 56 75 78 210 196 217 189 3 -2 -7 -20 -21 -39z
m355 -17 c-58 -53 -105 -71 -61 -23 33 37 101 85 108 78 3 -3 -18 -28 -47 -55z
m-1682 -162 c0 -20 -22 -37 -47 -37 -29 0 -30 24 0 38 30 15 47 14 47 -1z
m948 -64 c-21 -20 -41 -33 -45 -29 -9 9 51 66 69 66 7 0 -4 -17 -24 -37z
m-279 1 c-13 -7 -26 -10 -28 -8 -8 7 33 33 43 27 5 -3 -2 -12 -15 -19z m511
-58 c0 -15 -29 -30 -39 -20 -3 3 3 12 13 20 24 17 26 17 26 0z m-95 -76 c-28
-29 -55 -39 -55 -21 0 10 58 49 74 50 6 1 -3 -12 -19 -29z m-425 -9 c0 -10
-157 -119 -210 -146 l-35 -18 20 23 c21 24 112 88 179 127 47 26 46 26 46 14z
m-390 -50 c0 -13 -65 -33 -92 -28 -21 3 -20 5 12 20 39 18 80 22 80 8z m-1130
-56 c0 -10 -239 -282 -292 -331 -45 -43 -141 -104 -163 -104 -23 0 15 45 138
166 181 178 317 294 317 269z m1718 -12 c-4 -21 -325 -132 -403 -139 l-50 -5
28 16 c52 30 376 143 415 144 8 1 12 -7 10 -16z m118 -32 c-9 -13 -46 -15 -46
-1 0 14 34 30 44 20 4 -4 5 -13 2 -19z m-2686 -55 c0 -7 -34 -62 -76 -122
-129 -183 -154 -221 -154 -232 0 -34 -140 -116 -162 -94 -7 7 77 162 88 162
10 0 -8 -64 -27 -98 -17 -29 -17 -33 -3 -30 9 2 27 23 41 48 14 25 37 59 52
75 16 17 31 38 35 49 7 20 104 170 144 224 25 32 62 44 62 18z m1727 -17 c-14
-8 -22 -8 -30 0 -8 8 -3 11 19 11 25 -1 27 -2 11 -11z m1 -85 c-8 -8 -298 -94
-317 -94 -9 0 -11 3 -5 9 29 27 348 111 322 85z m-4603 -81 c-10 -27 -67 -155
-127 -286 -59 -131 -108 -242 -108 -247 0 -5 -18 -29 -39 -54 -21 -25 -47 -66
-56 -93 -42 -113 -71 -177 -80 -175 -15 2 -25 70 -18 127 9 83 71 286 109 360
33 64 121 203 158 249 23 29 29 13 12 -29 -18 -43 -21 -69 -6 -60 6 4 45 65
87 136 42 71 78 127 81 124 3 -2 -3 -26 -13 -52z m4735 18 c0 -18 -172 -61
-239 -61 -23 1 -24 2 -8 11 22 13 194 58 225 59 12 0 22 -4 22 -9z m-750 -56
c0 -9 -20 -20 -52 -30 -62 -18 -61 -18 -52 -4 6 11 81 48 97 49 4 0 7 -7 7
-15z m-470 -35 c0 -22 -38 -56 -50 -44 -14 15 16 75 34 68 9 -3 16 -14 16 -24z
m1193 13 c-7 -2 -19 -2 -25 0 -7 3 -2 5 12 5 14 0 19 -2 13 -5z m-1943 -47 c0
-8 -4 -17 -9 -21 -12 -7 -24 12 -16 25 9 15 25 12 25 -4z m850 -6 c0 -17 -63
-40 -75 -29 -7 7 -4 15 9 25 23 16 66 19 66 4z m155 -76 c-35 -26 -147 -53
-123 -29 8 9 112 44 128 44 11 0 10 -3 -5 -15z m-1208 -260 c-63 -132 -132
-286 -154 -344 -22 -58 -55 -145 -73 -193 -32 -85 -45 -106 -57 -93 -8 8 41
185 78 286 30 83 164 362 217 455 40 68 92 138 99 131 2 -2 -47 -111 -110
-242z m191 169 c-16 -32 -58 -125 -94 -208 -66 -152 -180 -365 -196 -365 -29
0 207 488 289 598 13 17 25 32 27 32 2 0 -10 -26 -26 -57z m592 26 c-73 -62
-189 -149 -267 -198 -45 -29 -83 -58 -86 -65 -6 -16 -110 -80 -147 -91 -22 -7
-23 -6 -12 8 19 22 240 186 392 290 124 85 189 116 120 56z m-783 -55 c-9 -10
-38 16 -31 28 4 6 13 4 22 -6 9 -8 13 -19 9 -22z m-168 -240 c-39 -110 -77
-210 -85 -224 -13 -24 -13 -24 -14 -3 0 43 71 247 136 388 52 112 35 37 -37
-161z m576 112 c-30 -40 -58 -55 -53 -29 3 14 61 63 75 63 2 0 -8 -15 -22 -34z
m315 30 c0 -8 -31 -36 -41 -36 -14 0 -11 28 4 33 16 7 37 8 37 3z m-180 -134
c0 -13 -129 -66 -138 -57 -4 4 9 20 28 36 24 21 45 29 72 29 21 0 38 -4 38 -8z
m-3652 -64 c-22 -101 -116 -398 -125 -398 -17 0 58 297 98 390 26 61 40 65 27
8z m53 -115 c-11 -38 -27 -107 -34 -153 -12 -81 -29 -111 -41 -73 -7 22 34
196 66 278 30 80 37 42 9 -52z m3169 58 c0 -12 -41 -63 -47 -57 -7 7 26 66 37
66 6 0 10 -4 10 -9z m26 -157 c-39 -34 -66 -43 -66 -24 0 13 92 72 99 64 3 -3
-12 -21 -33 -40z m4 -99 c0 -18 -48 -31 -62 -17 -16 16 0 32 33 32 19 0 29 -5
29 -15z m-514 -33 c-8 -16 -24 -66 -36 -111 -11 -46 -39 -129 -61 -184 -54
-136 -163 -356 -167 -337 -1 8 29 96 68 195 39 99 74 200 77 225 7 51 59 162
98 208 33 40 40 41 21 4z m-2458 -40 c3 -9 -2 -13 -14 -10 -9 1 -19 9 -22 16
-3 9 2 13 14 10 9 -1 19 -9 22 -16z m-274 -539 c9 -63 -6 -72 -26 -15 -15 45
-18 386 -3 447 7 32 11 -4 16 -170 3 -115 9 -234 13 -262z m2560 412 c-16 -25
-34 -33 -34 -16 0 7 37 38 48 40 1 1 -5 -10 -14 -24z m-102 -342 c-43 -98 -89
-205 -102 -238 -28 -73 -45 -94 -35 -45 20 100 202 505 212 473 2 -6 -31 -92
-75 -190z m-3182 71 c14 -35 1 -53 -16 -23 -7 13 -13 30 -14 37 0 22 20 13 30
-14z m574 -77 c19 -101 36 -450 21 -436 -17 18 -54 469 -38 469 6 0 14 -15 17
-33z m-506 -99 c11 -29 23 -69 27 -88 3 -19 9 -43 11 -52 3 -10 1 -18 -4 -18
-9 0 -50 116 -66 183 -11 47 12 29 32 -25z m889 -80 c-2 -13 -4 -5 -4 17 -1
22 1 32 4 23 2 -10 2 -28 0 -40z m32 -168 c14 -65 14 -77 1 -64 -13 13 -30
114 -19 114 4 0 12 -23 18 -50z m-615 -57 c15 -68 22 -142 11 -132 -4 5 -26
104 -40 184 -11 68 11 26 29 -52z m2613 -145 c-10 -78 -35 -154 -61 -185 -14
-16 -27 -25 -30 -22 -16 16 69 259 91 259 3 0 3 -24 0 -52z m-2820 -180 c-2
-13 -4 -5 -4 17 -1 22 1 32 4 23 2 -10 2 -28 0 -40z m2792 -57 c-39 -50 -69
-63 -33 -16 22 30 49 53 62 55 2 0 -11 -18 -29 -39z m-2883 -142 c9 -56 11
-94 6 -110 -8 -21 -11 -18 -20 31 -6 30 -14 82 -17 115 -3 33 -8 78 -10 100
l-4 40 15 -45 c8 -25 21 -84 30 -131z m2754 131 c0 -11 -4 -20 -10 -20 -5 0
-10 9 -10 20 0 11 5 20 10 20 6 0 10 -9 10 -20z m-2697 -407 c4 -32 24 -157
47 -278 22 -121 40 -229 40 -240 -1 -34 -28 25 -45 97 -27 118 -85 489 -79
500 13 20 31 -20 37 -79z m252 -112 c13 -42 36 -125 49 -186 45 -200 160 -518
277 -765 58 -123 64 -140 38 -110 -112 129 -272 514 -334 805 -14 66 -38 167
-55 224 -16 57 -30 113 -30 125 1 20 1 20 15 2 8 -10 26 -53 40 -95z m-32
-181 c20 -69 43 -161 52 -205 10 -44 41 -159 70 -255 82 -273 82 -291 3 -157
-34 56 -44 67 -46 50 -8 -53 78 -291 171 -473 83 -162 127 -230 196 -300 39
-40 84 -107 149 -221 106 -187 194 -314 200 -287 4 20 -51 132 -127 258 -28
47 -51 88 -51 93 0 4 9 7 20 7 11 0 20 3 20 6 0 4 -22 48 -50 99 -27 51 -50
98 -50 106 0 42 162 -236 304 -521 108 -217 165 -356 190 -456 8 -34 54 -146
101 -250 48 -103 91 -199 97 -213 8 -23 7 -24 -6 -11 -8 8 -87 123 -176 255
-89 132 -171 249 -182 260 -31 30 143 -304 218 -419 37 -56 94 -139 128 -186
81 -111 83 -115 60 -102 -25 14 -87 79 -161 172 -34 41 -75 88 -92 104 -117
111 125 -217 324 -438 151 -168 456 -541 445 -544 -24 -8 -153 120 -296 293
-37 44 -178 202 -315 350 -272 297 -376 421 -414 494 -25 51 -74 115 -82 107
-8 -8 147 -299 196 -366 17 -24 40 -63 50 -85 10 -22 53 -89 95 -149 43 -60
82 -118 87 -129 46 -85 -124 82 -239 235 -85 114 -122 175 -122 204 0 26 -51
84 -74 84 -25 0 -20 -57 11 -109 51 -89 312 -424 448 -576 113 -126 138 -172
63 -114 l-43 33 29 -32 c16 -18 59 -50 95 -71 36 -22 95 -64 131 -95 197 -168
518 -395 684 -482 54 -28 94 -54 89 -57 -12 -7 -120 9 -178 26 -52 15 -143 79
-166 117 -18 28 -103 80 -133 80 -8 0 -39 24 -68 53 -29 29 -102 88 -163 132
-232 167 -303 222 -392 308 -50 48 -94 99 -97 112 -9 34 -92 103 -140 115 -78
20 -95 32 -163 118 -101 127 -216 283 -211 287 2 3 58 -29 123 -70 119 -75
135 -83 135 -66 0 25 -18 45 -84 93 -143 103 -323 288 -471 483 -46 61 -97
125 -114 143 -17 18 -31 44 -31 58 0 13 -19 60 -42 104 -23 44 -38 83 -34 87
11 11 29 -17 98 -149 60 -117 170 -267 218 -297 30 -20 28 -16 -51 94 -76 107
-152 242 -185 329 -34 89 -98 218 -136 274 -16 23 -26 46 -23 52 3 5 -6 17
-20 26 -14 9 -25 25 -25 36 0 17 5 19 26 14 l26 -7 -2 108 c0 59 0 124 1 143
0 21 -21 90 -54 175 -87 224 -115 332 -127 492 -5 68 -21 181 -35 253 -27 142
-29 160 -17 160 5 0 24 -57 43 -126 36 -133 45 -138 49 -24 0 30 4 73 8 95 l8
40 17 -78 c9 -43 17 -115 17 -160 0 -70 12 -146 54 -342 4 -20 -5 -8 -26 33
-18 34 -36 62 -41 62 -18 0 1 -136 33 -235 69 -213 180 -404 180 -310 0 13
-13 61 -30 106 -16 46 -28 84 -26 87 7 7 52 -87 107 -225 74 -186 157 -339
174 -321 7 6 -15 90 -79 307 -36 123 -43 178 -13 111 32 -73 274 -390 298
-390 20 0 6 29 -46 95 -134 172 -290 427 -283 462 3 12 31 -23 82 -102 43 -66
111 -165 151 -220 40 -55 81 -117 91 -137 18 -40 41 -55 57 -39 10 10 -24 69
-194 328 -48 73 -100 161 -117 195 -34 69 -138 404 -202 648 -22 85 -52 190
-65 233 -25 78 -33 153 -16 142 5 -3 19 -36 32 -73 29 -89 59 -152 72 -152 13
0 3 91 -23 206 -11 49 -23 100 -26 114 -4 17 -2 22 5 15 5 -5 25 -66 44 -135z
m2327 113 c0 -14 -19 -38 -25 -32 -8 8 5 39 16 39 5 0 9 -3 9 -7z m-120 -197
c0 -13 -7 -29 -15 -36 -13 -11 -15 -7 -15 22 0 19 3 38 6 41 12 11 24 -3 24
-27z m-2563 -13 c-3 -10 -5 -4 -5 12 0 17 2 24 5 18 2 -7 2 -21 0 -30z m2063
6 c0 -11 -4 -17 -10 -14 -5 3 -10 13 -10 21 0 8 5 14 10 14 6 0 10 -9 10 -21z
m460 -165 c0 -8 -4 -14 -10 -14 -5 0 -10 9 -10 21 0 11 5 17 10 14 6 -3 10
-13 10 -21z m-540 -19 c0 -8 -4 -17 -10 -20 -6 -4 -10 5 -10 20 0 15 4 24 10
20 6 -3 10 -12 10 -20z m145 -125 c4 -36 17 -135 30 -220 30 -194 48 -363 43
-415 -3 -38 -4 -39 -16 -18 -7 13 -28 98 -47 190 -18 93 -41 203 -51 246 -17
74 -16 78 1 91 16 12 17 23 11 105 -7 91 -2 126 15 100 4 -7 11 -43 14 -79z
m379 44 c13 -34 3 -94 -15 -94 -5 0 -9 25 -9 55 0 53 11 72 24 39z m-2240
-570 c9 -23 7 -36 -3 -30 -12 8 -21 46 -11 46 4 0 11 -7 14 -16z m-221 -214
c36 -80 86 -187 111 -239 45 -92 54 -121 38 -121 -10 0 -111 182 -158 285 -51
111 -84 201 -84 227 0 42 26 -2 93 -152z m1936 72 c28 -97 32 -120 22 -126
-14 -9 -27 14 -45 73 -18 61 -22 136 -6 126 5 -3 18 -36 29 -73z m389 -85 c2
-10 -3 -17 -12 -17 -18 0 -29 16 -21 31 9 14 29 6 33 -14z m-20 -157 c4 -38
-14 -63 -28 -40 -11 18 -13 64 -3 74 14 14 28 -1 31 -34z m-588 -255 c69 -143
112 -248 99 -239 -18 11 -190 368 -189 392 1 18 38 -45 90 -153z m140 60 c31
-99 38 -132 20 -105 -13 19 -60 166 -60 186 0 31 10 10 40 -81z m567 -12 c-3
-10 -5 -4 -5 12 0 17 2 24 5 18 2 -7 2 -21 0 -30z m93 -30 c0 -27 -3 -34 -11
-26 -7 7 -9 23 -5 37 9 37 16 32 16 -11z m-20 -590 c4 -257 11 -476 15 -487 6
-14 5 -18 -6 -14 -21 7 -39 50 -55 136 -8 42 -31 153 -50 246 l-35 170 34 30
c20 17 41 42 47 54 11 22 29 210 30 306 0 22 3 37 6 33 3 -3 9 -216 14 -474z
m-153 355 c-2 -13 -4 -5 -4 17 -1 22 1 32 4 23 2 -10 2 -28 0 -40z m210 -10
c-2 -13 -4 -5 -4 17 -1 22 1 32 4 23 2 -10 2 -28 0 -40z m-687 -87 c-1 -13 -3
-13 -15 3 -19 26 -19 42 0 26 8 -7 15 -20 15 -29z m190 -107 c23 -63 24 -68 9
-58 -13 8 -59 103 -59 123 0 28 29 -10 50 -65z m-517 -66 c63 -79 188 -311
187 -347 -1 -41 -131 152 -215 318 -36 73 -42 90 -26 82 11 -6 35 -30 54 -53z
m275 -212 c55 -29 167 -167 222 -276 23 -45 80 -205 80 -224 0 -22 -31 23 -93
134 -122 220 -203 335 -246 351 -20 8 -23 12 -11 19 19 12 16 12 48 -4z m756
-264 c9 -98 18 -186 22 -195 3 -9 16 -17 29 -17 30 0 35 -15 45 -142 5 -59 14
-116 19 -127 6 -11 11 -37 11 -59 0 -88 97 -390 157 -491 36 -59 45 -81 33
-81 -19 0 -62 58 -106 142 -71 138 -111 276 -134 459 -22 169 -30 202 -60 234
-32 35 -41 74 -51 239 -9 164 -4 281 12 238 5 -12 15 -102 23 -200z m-734 144
c-1 -20 -1 -20 -20 3 -11 13 -20 30 -20 39 0 13 3 12 20 -3 11 -10 20 -28 20
-39z m-129 -152 c61 -65 83 -96 94 -134 l8 -25 -23 20 c-31 27 -166 189 -181
216 l-11 22 28 -20 c16 -12 54 -47 85 -79z m450 -65 c45 -77 129 -261 123
-268 -7 -7 -30 28 -88 134 -61 112 -100 205 -86 205 5 0 28 -32 51 -71z m-218
-110 c65 -90 137 -195 159 -234 23 -38 59 -89 79 -112 37 -40 84 -121 76 -129
-8 -9 -457 618 -457 638 0 27 35 -13 143 -163z m-1243 -96 c93 -70 236 -219
584 -609 26 -30 44 -54 40 -54 -53 1 -656 567 -701 659 -36 73 -16 74 77 4z
m1249 -113 c61 -62 201 -240 201 -255 0 -20 -257 251 -281 296 -21 40 22 18
80 -41z m406 -74 c8 -25 11 -46 6 -46 -11 0 -41 67 -41 92 0 33 19 9 35 -46z
m425 -183 c16 -59 38 -134 50 -166 26 -68 92 -156 129 -170 22 -8 26 -15 23
-41 -3 -22 2 -37 17 -50 12 -11 21 -26 21 -35 0 -9 32 -81 70 -161 38 -79 67
-147 64 -149 -13 -14 -132 136 -138 175 -2 11 -10 18 -19 16 -11 -2 -14 3 -10
17 3 13 -11 44 -41 90 -110 164 -251 543 -221 591 13 22 27 -7 55 -117z
m-1610 -14 c0 -18 -2 -19 -15 -9 -8 7 -15 16 -15 21 0 5 7 9 15 9 9 0 15 -9
15 -21z m950 -191 c0 -13 -4 -10 -45 34 l-40 41 43 -33 c23 -18 42 -37 42 -42z
m-228 -190 c21 -21 38 -45 38 -54 0 -15 -3 -15 -27 1 -64 40 -115 88 -103 95
21 13 51 -1 92 -42z m-151 -502 c41 -18 175 -82 299 -141 124 -59 285 -134
359 -166 74 -33 137 -62 140 -65 12 -13 -86 10 -178 41 -92 31 -193 76 -420
188 -132 66 -307 177 -277 177 2 0 37 -15 77 -34z m-22 -135 c92 -44 191 -89
221 -100 54 -20 130 -74 130 -91 0 -30 -489 205 -530 254 -24 29 9 18 179 -63z
m859 33 c91 -30 111 -44 62 -44 -45 1 -163 41 -168 58 -6 18 21 15 106 -14z
m650 -51 c5 -18 -20 -16 -44 2 -18 15 -18 15 10 13 16 -2 31 -9 34 -15z m-549
-44 c94 -26 221 -78 221 -90 0 -18 -76 -8 -157 20 -74 26 -173 75 -173 86 0
10 36 4 109 -16z m-920 -67 c116 -42 394 -174 435 -206 30 -24 10 -36 -37 -22
-167 52 -577 250 -577 279 0 11 41 -1 179 -51z m1406 -62 c4 -6 -5 -10 -20
-10 -15 0 -24 4 -20 10 3 6 12 10 20 10 8 0 17 -4 20 -10z m-5 -45 c102 -9
193 -18 203 -21 49 -15 -17 -44 -103 -44 -76 0 -216 25 -284 51 -66 24 -86 45
-35 35 19 -3 117 -13 219 -21z m-783 -39 c76 -24 173 -49 217 -55 77 -11 383
-85 394 -96 9 -9 -177 -5 -276 5 -52 6 -129 19 -172 30 -95 24 -90 24 -90 1 0
-17 -3 -18 -35 -8 -29 8 -33 13 -23 25 15 18 1 30 -104 83 -73 37 -97 59 -63
59 8 0 77 -20 152 -44z m634 -68 c22 -6 39 -14 39 -18 0 -8 -99 6 -132 19 -20
9 -19 10 16 10 21 1 56 -4 77 -11z m-666 -18 c-3 -5 -13 -10 -21 -10 -8 0 -14
5 -14 10 0 6 9 10 21 10 11 0 17 -4 14 -10z m248 -71 c61 -20 94 -39 68 -39
-30 0 -150 32 -167 45 -18 14 -17 14 9 15 15 0 56 -9 90 -21z m522 -99 c52 -6
113 -17 137 -25 l43 -13 -90 -1 c-91 0 -263 13 -310 25 -49 12 -24 24 50 24
42 0 118 -5 170 -10z m505 -54 c0 -3 -24 -12 -52 -22 -29 -9 -59 -19 -65 -22
-7 -2 -13 0 -13 6 0 6 19 17 43 25 40 15 87 21 87 13z"/>
<path d="M879 3583 c16 -32 37 -67 46 -78 16 -20 16 -19 9 5 -9 36 -64 130
-75 130 -5 0 4 -26 20 -57z"/>
<path d="M826 3529 c26 -51 69 -113 125 -176 27 -31 58 -76 69 -99 19 -43 54
-72 65 -54 9 15 -21 64 -78 127 -29 32 -81 95 -115 140 -68 90 -93 113 -66 62z"/>
<path d="M960 3449 c0 -6 20 -37 45 -68 25 -31 58 -75 75 -98 17 -24 37 -43
46 -43 15 0 14 3 -1 28 -10 15 -37 50 -60 77 -23 28 -52 65 -64 83 -22 32 -41
42 -41 21z"/>
<path d="M1146 3115 c49 -57 124 -122 124 -108 0 11 -153 163 -163 163 -5 0
13 -25 39 -55z"/>
<path d="M1282 3066 c43 -42 83 -76 90 -76 7 1 -14 25 -47 56 -97 88 -127 103
-43 20z"/>
<path d="M1540 3083 c0 -7 61 -104 76 -122 2 -2 7 -2 10 2 3 3 -11 31 -31 61
-36 55 -55 75 -55 59z"/>
<path d="M1690 2253 c0 -11 100 -76 106 -70 6 5 -48 48 -83 66 -13 6 -23 8
-23 4z"/>
<path d="M7438 12614 c-52 -113 -132 -355 -157 -480 -29 -146 -71 -518 -70
-620 1 -120 13 -161 23 -79 21 186 28 221 43 244 13 20 20 68 29 201 15 213
38 327 114 566 87 271 93 327 18 168z"/>
<path d="M6375 12624 c-9 -22 -29 -82 -45 -134 -57 -194 -79 -206 -35 -20 14
58 25 121 24 140 l0 35 -25 -48 c-42 -80 -114 -388 -145 -622 -15 -115 -28
-140 -22 -44 6 117 23 330 30 372 3 22 2 37 -5 37 -32 0 -63 -232 -63 -480 0
-188 9 -267 35 -319 16 -30 71 -81 88 -81 10 0 6 61 -13 208 -5 40 -9 117 -9
170 0 98 34 362 50 391 5 9 10 -130 13 -339 3 -282 7 -369 20 -424 29 -122 38
-107 54 94 8 109 27 232 58 386 25 124 44 228 42 230 -15 15 -66 -135 -87
-256 -16 -90 -23 -113 -37 -118 -28 -9 -6 275 37 483 10 50 31 149 47 222 21
101 25 135 16 144 -9 9 -15 2 -28 -27z m-225 -968 c6 -37 7 -72 4 -78 -11 -18
-23 26 -30 105 -7 90 10 72 26 -27z"/>
<path d="M7192 12033 c-5 -10 -12 -47 -16 -83 -3 -36 -15 -99 -26 -140 -24
-89 -37 -252 -49 -610 -9 -232 -13 -277 -35 -361 -31 -118 -100 -300 -168
-441 -28 -59 -48 -111 -45 -115 27 -26 137 176 207 381 54 158 79 261 94 375
12 100 29 127 40 64 14 -90 1 -287 -34 -498 -24 -144 -25 -157 -6 -132 48 63
81 336 74 605 -5 167 -7 181 -33 242 -42 96 -46 241 -11 445 34 202 41 271 28
279 -6 4 -15 -1 -20 -11z"/>
<path d="M6002 11648 c3 -227 1 -361 -4 -328 -41 269 -61 351 -78 334 -18 -18
51 -531 100 -752 36 -160 38 -253 10 -413 -36 -201 -108 -430 -151 -481 l-18
-23 -1 60 0 60 -50 -93 c-73 -139 -132 -216 -249 -327 -305 -289 -424 -428
-492 -570 -31 -64 -35 -85 -19 -85 11 0 31 28 109 151 100 156 403 480 428
456 3 -3 -51 -73 -119 -154 -146 -174 -218 -269 -218 -290 0 -13 3 -13 15 -3
26 21 415 477 519 608 54 67 104 122 111 122 26 0 27 -39 1 -96 -14 -30 -56
-108 -93 -172 -69 -121 -177 -341 -170 -348 2 -2 32 28 66 68 114 131 239 334
256 418 4 19 22 69 40 110 63 143 150 499 166 679 14 160 8 635 -9 674 -25 59
-31 15 -25 -191 8 -291 -20 -647 -54 -689 -13 -17 -14 -17 -8 4 31 115 34 489
5 936 -10 172 -24 393 -30 492 -11 191 -16 225 -33 225 -7 0 -8 -123 -5 -382z"/>
<path d="M6994 11613 c9 -35 16 -101 31 -308 16 -221 26 -285 40 -252 21 49
-14 470 -45 551 -11 29 -34 36 -26 9z"/>
<path d="M5706 11528 c-25 -70 -85 -407 -102 -573 -9 -99 -23 -116 -24 -30 0
67 -11 108 -23 88 -6 -9 -11 -47 -38 -288 -23 -209 -78 -417 -147 -560 -24
-48 -67 -113 -110 -162 -39 -45 -106 -133 -148 -195 -92 -133 -167 -216 -245
-269 -59 -40 -69 -54 -69 -97 0 -26 -12 -54 -110 -270 -69 -154 -38 -115 56
69 100 196 135 246 220 318 34 28 95 90 135 138 41 49 134 156 208 238 199
222 293 376 374 611 81 233 148 666 110 705 -25 25 -36 -10 -49 -163 -22 -247
-82 -536 -134 -637 -10 -21 -28 -62 -39 -90 -21 -56 -127 -221 -141 -221 -6 0
9 51 31 113 52 144 83 239 99 305 8 35 20 58 35 68 20 13 24 27 30 97 13 161
55 494 79 627 34 190 38 220 27 220 -5 0 -16 -19 -25 -42z"/>
<path d="M7308 11479 c-6 -14 0 -99 27 -373 8 -88 15 -197 15 -244 0 -181 -47
-382 -142 -610 -52 -126 -79 -202 -70 -202 12 0 75 116 133 245 64 141 81 129
24 -17 -79 -200 -186 -377 -299 -497 l-61 -64 40 21 c85 44 197 188 276 357
55 118 120 318 126 389 3 34 17 85 31 115 24 53 25 57 19 235 -6 184 -30 376
-68 537 -21 91 -41 133 -51 108z"/>
<path d="M4206 10960 c15 -395 5 -632 -37 -884 -11 -66 -18 -138 -17 -160 l4
-41 17 38 c50 108 97 475 97 757 0 186 -35 480 -60 504 -9 8 -10 -44 -4 -214z"/>
<path d="M4679 11048 c-4 -323 -20 -667 -33 -743 -46 -257 -198 -625 -362
-878 -31 -48 -54 -91 -50 -94 13 -13 94 109 193 292 186 341 273 609 292 905
8 123 -1 422 -15 516 -8 56 -24 57 -25 2z"/>
<path d="M6368 11026 c-11 -66 -10 -478 1 -494 10 -16 19 331 12 453 -6 86 -6
88 -13 41z"/>
<path d="M4114 10987 c-3 -9 0 -32 6 -54 7 -21 14 -117 17 -214 8 -274 -22
-467 -124 -789 -25 -80 -48 -151 -50 -157 -3 -8 3 -13 13 -13 37 0 134 175
134 241 0 19 6 58 14 85 29 97 59 315 72 521 7 113 -7 285 -29 352 -13 37 -43
53 -53 28z"/>
<path d="M5801 10808 c-6 -35 -16 -113 -21 -174 -6 -61 -17 -133 -25 -161 -24
-80 -130 -245 -276 -428 -187 -236 -353 -458 -366 -491 -3 -8 1 -14 10 -14 8
0 41 35 73 78 32 42 127 164 212 271 377 474 408 537 419 834 6 158 -6 197
-26 85z"/>
<path d="M5246 10783 c-3 -10 -17 -81 -31 -158 -34 -182 -55 -264 -121 -469
-30 -92 -53 -171 -50 -174 20 -19 58 63 134 293 78 234 123 525 82 525 -5 0
-11 -8 -14 -17z"/>
<path d="M5350 10774 c-6 -15 -15 -79 -20 -143 -14 -178 -78 -384 -169 -539
-21 -37 -56 -98 -76 -137 -21 -38 -47 -81 -57 -95 -21 -27 -8 -41 17 -20 28
23 106 149 170 274 106 208 179 468 173 612 -3 73 -21 95 -38 48z"/>
<path d="M5031 10698 c-6 -18 -20 -77 -31 -131 -21 -106 -25 -116 -51 -134 -9
-7 -31 -50 -49 -95 -18 -46 -51 -118 -73 -161 -22 -43 -37 -81 -34 -84 15 -14
37 11 76 86 23 44 46 83 51 86 40 25 -48 -268 -154 -513 -60 -136 -64 -151
-41 -132 59 49 204 408 260 645 28 117 75 386 75 426 0 41 -17 44 -29 7z"/>
<path d="M9073 10578 c4 -80 16 -150 39 -238 29 -111 32 -139 32 -255 -1 -179
-25 -309 -89 -500 -5 -14 0 -11 18 10 23 27 26 28 33 12 16 -41 -3 -162 -36
-226 -36 -72 -71 -166 -99 -271 -26 -93 -29 -234 -5 -268 32 -47 63 -13 65 71
l0 42 15 -48 c23 -73 38 -55 47 54 17 215 30 237 41 69 7 -111 5 -142 -20
-240 -19 -72 -18 -193 2 -288 17 -85 71 -237 115 -324 52 -103 91 -295 63
-305 -7 -2 -20 17 -29 44 -29 83 -48 123 -57 123 -14 0 -9 -27 27 -164 37
-143 59 -259 81 -436 20 -166 17 -170 -22 -25 -71 263 -171 545 -193 545 -17
0 -15 -8 38 -167 102 -305 118 -497 41 -498 -17 0 -26 -7 -30 -25 -8 -35 -22
-10 -24 44 -1 22 -5 42 -9 44 -18 6 -27 0 -27 -17 0 -10 -6 -24 -14 -30 -23
-20 -29 4 -22 92 7 74 5 86 -16 126 -44 83 -65 59 -26 -31 17 -40 19 -54 10
-69 -7 -10 -12 -32 -12 -47 0 -34 58 -536 65 -569 8 -33 29 -28 48 12 12 26
23 35 41 35 30 0 46 25 46 72 0 19 7 43 15 54 14 19 14 19 14 -1 0 -11 -4 -38
-9 -61 -5 -22 -14 -123 -20 -225 -6 -101 -13 -204 -17 -229 -7 -43 -7 -44 -14
-15 -4 17 -7 72 -8 124 0 52 -4 92 -7 89 -3 -3 -12 -95 -19 -204 -19 -265 -28
-334 -46 -334 -5 0 -9 16 -9 36 0 46 -17 41 -52 -17 -35 -57 -75 -199 -90
-317 -15 -116 -5 -144 57 -152 l39 -5 -33 -28 c-54 -45 -89 -60 -128 -52 -71
13 -96 -23 -48 -70 43 -44 148 -27 260 41 78 47 169 94 184 94 24 0 9 -18 -30
-36 -80 -35 -109 -74 -58 -74 17 0 20 -6 17 -32 -3 -31 -1 -33 30 -36 30 -3
32 -1 32 28 0 25 4 31 18 28 20 -4 21 -38 0 -142 -12 -65 -16 -71 -58 -101
-25 -17 -50 -42 -57 -55 -6 -13 -29 -33 -50 -43 -21 -11 -60 -40 -86 -66 l-48
-46 -126 -3 c-170 -5 -206 1 -252 44 -23 20 -49 34 -64 34 -39 0 -40 -15 -2
-29 19 -7 42 -25 53 -45 24 -40 50 -46 217 -45 159 0 193 8 251 56 27 22 71
52 97 67 30 17 54 40 64 62 9 18 34 45 55 59 37 25 69 74 81 126 4 15 15 36
25 48 l17 22 26 -20 c35 -27 81 -116 119 -231 47 -140 63 -159 102 -123 17 15
18 15 18 -3 0 -27 -26 -61 -60 -79 -34 -18 -34 -18 -87 90 -47 95 -65 125 -76
125 -10 0 1 -42 30 -112 27 -67 29 -88 8 -88 -9 0 -15 9 -15 21 0 26 -29 89
-41 89 -12 0 -2 -42 22 -97 12 -30 24 -43 38 -43 11 0 31 -15 45 -33 32 -42
89 -174 88 -207 0 -36 16 -60 39 -60 11 0 30 -5 42 -12 12 -6 38 -14 57 -18
57 -9 65 -45 63 -290 -1 -113 -6 -227 -11 -255 -7 -44 -9 -33 -15 90 -11 206
-28 379 -38 390 -5 5 -9 -122 -10 -315 -1 -179 -4 -338 -8 -355 -13 -61 -21 7
-31 264 -12 317 -19 397 -36 440 -21 50 -26 33 -14 -46 29 -204 30 -747 1
-776 -14 -14 -19 54 -30 408 -7 199 -15 324 -23 350 l-13 40 -3 -63 c-2 -35 4
-124 13 -197 20 -179 19 -280 -6 -452 -25 -172 -40 -235 -56 -241 -18 -5 -16
29 6 139 38 182 48 361 21 344 -9 -6 -13 -29 -30 -198 -20 -200 -79 -356 -166
-441 -57 -55 -114 -94 -114 -76 0 6 14 36 30 67 17 31 30 66 30 79 0 15 6 24
16 24 12 0 15 6 11 21 -3 11 5 44 19 73 43 94 93 340 79 393 -8 35 -16 23 -26
-38 -5 -33 -16 -58 -32 -73 -16 -15 -32 -54 -52 -125 -20 -73 -35 -110 -52
-124 -13 -12 -33 -51 -45 -89 -12 -37 -25 -68 -28 -68 -4 0 -15 9 -25 20 -13
14 -15 27 -10 47 4 15 7 42 8 58 l2 30 -123 1 c-72 1 -128 6 -134 12 -13 13 5
18 97 27 76 9 112 24 152 66 44 47 113 197 113 246 0 62 -38 83 -76 42 -94
-104 -259 -146 -318 -80 -17 19 -17 20 3 30 11 6 32 11 48 11 15 0 37 7 47 15
11 8 47 23 79 32 109 30 234 175 251 293 7 42 -21 129 -46 144 -24 15 -51 -14
-97 -101 -42 -80 -72 -100 -167 -115 -92 -14 -128 -2 -249 87 -135 99 -127 90
-158 187 -35 109 -101 211 -209 324 -84 87 -132 122 -143 104 -3 -5 -24 -14
-45 -20 -74 -20 -44 -55 56 -66 71 -8 87 -21 159 -129 61 -92 105 -178 129
-250 19 -59 41 -84 139 -161 39 -32 92 -75 116 -97 l44 -40 92 7 c174 12 237
47 286 159 13 31 27 57 32 57 4 0 7 -31 7 -68 0 -53 -6 -79 -26 -120 -31 -63
-75 -94 -221 -152 -94 -38 -118 -44 -183 -45 -65 0 -84 4 -141 32 -36 18 -87
51 -113 74 -26 23 -49 39 -52 37 -5 -6 72 -127 113 -177 50 -62 243 -131 363
-131 69 0 112 14 164 51 22 16 44 29 48 29 19 0 5 -42 -34 -100 -47 -71 -109
-116 -173 -126 -102 -15 -263 51 -347 141 -57 62 -145 131 -155 122 -17 -18
239 -270 347 -342 87 -58 119 -67 198 -59 73 8 82 -6 22 -36 -59 -30 -121 -26
-241 16 -133 46 -179 70 -277 143 -91 69 -176 158 -210 219 l-23 42 25 0 c14
0 26 5 26 10 0 6 -13 70 -29 143 -16 72 -41 193 -56 267 -16 74 -37 152 -47
173 -25 51 -102 127 -128 127 -27 0 -26 -6 15 -51 62 -69 40 -72 -49 -7 -21
15 -43 28 -48 28 -15 0 -8 -37 12 -63 31 -39 25 -76 -14 -90 -18 -7 -18 -15
-1 -62 6 -15 3 -14 -11 5 -10 14 -30 58 -44 98 -14 41 -29 74 -35 75 -6 1 -12
-38 -15 -93 l-5 -95 -17 55 c-9 30 -21 71 -26 90 l-9 35 -8 -53 -8 -54 -38 44
c-29 34 -39 40 -44 27 -3 -8 -1 -28 5 -43 24 -64 -1 -63 -35 1 l-24 48 6 -60
6 -60 -50 47 c-55 50 -120 88 -153 88 -21 0 -21 0 -3 -31 19 -33 99 -99 118
-99 21 0 40 -29 27 -42 -13 -13 -46 8 -165 105 -84 70 -142 105 -153 94 -4 -4
0 -15 9 -25 24 -26 21 -33 -8 -22 -14 5 -25 6 -25 1 0 -11 44 -51 57 -51 13 0
83 -79 83 -93 0 -5 -9 -7 -21 -4 -16 4 -18 3 -8 -9 6 -7 28 -18 48 -24 21 -5
69 -30 107 -54 l69 -45 5 30 5 30 47 -31 c27 -18 50 -36 54 -41 3 -5 -44 -9
-111 -9 -88 0 -126 4 -151 16 -35 17 -88 76 -114 127 -19 39 -126 164 -151
178 -19 10 -20 9 -8 -13 6 -13 35 -57 64 -98 58 -83 79 -120 69 -120 -3 0 -40
34 -81 76 -40 42 -77 74 -80 71 -9 -10 22 -51 107 -142 44 -46 80 -87 80 -90
0 -3 -9 -5 -21 -5 -12 0 -45 26 -83 65 -51 53 -68 65 -94 65 -35 0 -40 -13
-17 -44 22 -29 10 -36 -66 -36 l-69 0 17 -26 c22 -34 92 -86 106 -77 5 3 -1
14 -14 24 -36 27 -16 34 59 20 37 -7 127 -19 200 -26 73 -8 152 -20 175 -27
40 -12 37 -13 -75 -16 -66 -1 -118 -7 -118 -12 0 -10 4 -11 98 -30 108 -21
145 -52 196 -164 14 -32 44 -84 65 -115 58 -85 75 -121 57 -121 -7 0 -19 7
-26 15 -30 37 -17 1 25 -69 40 -66 46 -81 41 -114 -5 -26 2 -62 23 -127 16
-49 27 -92 25 -94 -12 -12 -36 32 -62 114 -17 50 -33 98 -37 109 -7 15 -5 17
13 11 16 -5 22 -2 22 9 0 9 -8 16 -19 16 -10 0 -29 9 -42 21 l-24 20 24 -7 24
-6 -21 28 c-27 37 -272 281 -272 271 0 -4 30 -49 67 -98 62 -86 153 -234 153
-251 0 -17 -16 -6 -36 25 -115 182 -212 305 -221 279 -3 -7 30 -67 72 -135 88
-141 220 -396 210 -405 -13 -13 -75 74 -126 174 -86 172 -148 222 -73 58 50
-107 77 -187 62 -182 -7 3 -52 76 -101 164 -100 181 -172 294 -188 294 -6 0
18 -53 52 -117 131 -247 187 -363 217 -447 31 -85 42 -164 22 -151 -5 3 -10
18 -10 32 0 41 -75 188 -122 240 -25 26 -60 71 -78 98 -43 64 -111 147 -117
141 -2 -2 25 -63 62 -135 75 -150 131 -286 170 -415 32 -106 62 -177 98 -230
26 -37 27 -43 26 -175 l0 -136 -20 70 c-11 39 -35 104 -54 145 -20 44 -40 114
-50 170 -26 154 -90 336 -128 367 -15 12 -23 31 -24 56 -2 41 -19 71 -35 61
-15 -9 -1 -98 38 -259 38 -152 53 -302 35 -347 -23 -60 -37 -30 -71 158 -11
59 -22 109 -25 112 -16 16 11 -275 35 -373 13 -53 13 -155 0 -135 -5 8 -12 11
-16 8 -3 -4 -10 -78 -15 -165 -5 -87 -13 -171 -18 -188 -8 -29 -9 -28 -18 25
l-10 55 -16 -35 c-8 -19 -25 -87 -36 -150 -25 -137 -39 -190 -50 -190 -5 0
-12 24 -15 53 l-8 52 -13 -31 c-15 -37 -35 -53 -35 -28 0 9 13 56 30 103 44
129 63 275 64 496 1 128 -3 204 -12 233 -13 42 -32 57 -32 25 -1 -301 -7 -552
-14 -565 -4 -10 -12 -15 -17 -12 -12 7 -11 468 1 559 8 61 6 74 -11 101 -13
21 -19 49 -19 88 0 48 -3 56 -17 54 -12 -2 -32 19 -63 66 -58 90 -63 66 -11
-55 46 -109 60 -156 42 -145 -6 4 -22 29 -36 56 -23 45 -45 72 -45 53 0 -4 7
-36 15 -70 24 -104 37 -285 39 -553 1 -177 -3 -261 -10 -274 -13 -22 -18 13
-29 209 -12 205 -70 573 -97 615 -12 19 -7 -23 21 -185 35 -194 54 -434 48
-585 -7 -165 -19 -209 -67 -231 l-35 -17 45 -9 c65 -14 80 -3 80 57 0 43 3 50
27 62 15 7 35 27 43 43 15 30 15 29 18 -43 3 -80 -11 -269 -22 -279 -3 -4 -12
-1 -18 5 -21 21 -28 13 -28 -35 0 -55 -24 -174 -40 -200 -7 -13 -8 33 -3 161
7 198 -5 232 -26 74 -18 -128 -40 -231 -53 -243 -8 -7 -9 1 -4 30 3 22 11 74
18 116 27 184 -41 312 -72 135 -7 -42 -11 -79 -8 -81 3 -3 13 16 23 42 44 120
43 64 -6 -172 -32 -158 -57 -241 -85 -282 -18 -27 -19 -27 -22 -6 -2 12 12 77
32 145 19 68 38 141 41 163 6 38 5 39 -10 20 -8 -11 -20 -38 -25 -60 -24 -93
-148 -376 -172 -391 -21 -13 -4 52 31 119 78 148 131 334 155 543 9 75 32 190
53 270 l38 139 0 210 c-1 218 -13 344 -46 450 -25 82 -152 337 -189 378 -19
23 -26 37 -19 44 13 13 -16 37 -36 29 -24 -9 -18 -47 25 -168 63 -175 110
-359 79 -305 -5 9 -14 17 -19 17 -15 0 -50 -42 -50 -59 1 -14 3 -13 14 2 15
20 29 21 57 6 19 -10 19 -12 5 -28 -13 -14 -14 -27 -7 -64 4 -26 7 -47 5 -47
-2 0 -15 21 -29 48 -26 47 -26 47 -20 12 24 -161 35 -523 16 -534 -14 -9 -20
29 -32 204 -14 221 -18 263 -29 280 -19 31 -22 -6 -11 -164 15 -201 16 -642 2
-711 -5 -27 -14 -63 -20 -78 -6 -16 -11 -35 -11 -43 0 -20 30 -17 36 4 12 38
35 84 40 79 3 -3 -13 -58 -35 -124 -41 -120 -48 -153 -32 -153 21 0 91 188
135 365 64 255 83 438 62 613 -18 152 -20 228 -7 236 13 9 26 -61 57 -314 19
-157 15 -226 -20 -373 -15 -59 -37 -171 -51 -250 -14 -78 -32 -167 -41 -197
-18 -64 -151 -369 -169 -388 -12 -13 -64 -8 -66 7 0 3 -2 67 -3 141 -3 133
-21 270 -36 270 -13 0 -20 -89 -20 -264 l0 -171 -75 -112 c-48 -70 -98 -131
-137 -165 -58 -50 -164 -174 -189 -220 -10 -19 -9 -20 17 -14 l29 8 -28 -30
c-15 -16 -50 -39 -78 -52 -27 -13 -48 -28 -46 -34 6 -18 63 -18 136 -2 180 41
985 22 1074 -26 29 -15 18 -52 -18 -58 -16 -3 -30 -11 -30 -17 0 -7 -9 -18
-19 -26 -23 -17 -13 -37 17 -37 23 0 45 13 117 68 24 17 61 37 83 43 57 15 33
33 -56 39 -70 6 -71 6 -42 19 44 20 215 41 333 41 164 0 374 -57 386 -106 10
-37 72 -72 148 -83 73 -10 96 -23 190 -107 31 -28 90 -68 130 -89 86 -45 128
-73 128 -86 0 -16 -30 -10 -100 21 -58 25 -82 30 -152 30 -103 1 -129 12 -176
75 -49 65 -140 138 -228 181 -73 36 -187 63 -219 50 -29 -11 -4 -28 55 -37 29
-4 73 -18 98 -31 62 -29 143 -111 170 -173 12 -27 26 -57 31 -65 4 -8 47 -35
95 -60 96 -49 167 -105 197 -154 19 -30 26 -76 12 -76 -20 0 -154 90 -193 130
-25 26 -71 66 -103 89 -32 23 -74 64 -93 91 -21 30 -52 57 -78 70 -73 35 -266
65 -266 40 0 -5 44 -38 98 -73 53 -36 115 -79 137 -97 22 -18 63 -43 90 -57
70 -35 151 -99 175 -138 40 -65 14 -61 -70 11 -79 68 -94 74 -174 74 -77 0
-222 24 -341 57 -49 14 -123 31 -164 39 -85 16 -562 34 -922 34 -217 0 -262
-3 -395 -25 -164 -28 -331 -41 -387 -31 -24 4 -57 26 -101 65 -74 68 -104 81
-121 57 -11 -14 -14 -15 -25 -1 -20 24 -40 18 -40 -13 0 -25 28 -80 84 -164
25 -38 15 -35 -39 12 -52 45 -66 50 -58 20 8 -30 -17 -25 -109 21 -68 34 -96
42 -171 49 -78 8 -97 14 -148 45 -33 20 -64 35 -70 33 -6 -2 8 -27 31 -56 24
-29 40 -55 37 -59 -3 -3 -32 -2 -64 2 -61 7 -88 28 -169 130 -31 40 -54 41
-54 3 0 -18 -5 -15 -34 18 -34 39 -156 114 -156 96 0 -5 61 -74 136 -152 82
-86 144 -160 155 -185 23 -52 43 -59 141 -45 95 14 145 27 189 52 34 19 38 19
67 4 35 -18 79 -21 84 -6 2 6 27 1 63 -14 145 -59 365 -92 365 -55 0 5 -29 24
-65 41 -36 18 -65 36 -65 42 0 15 104 -1 146 -22 22 -11 57 -29 79 -41 56 -29
115 -36 140 -18 19 15 19 15 -5 26 -14 6 -43 15 -65 21 -103 26 -83 45 32 30
54 -7 354 -15 778 -20 712 -8 874 -16 1172 -60 144 -21 169 -30 249 -96 91
-73 127 -69 141 18 3 21 9 38 13 38 3 0 42 -20 86 -45 43 -25 86 -44 94 -43
11 2 16 19 18 57 3 43 -3 65 -28 118 -30 61 -30 66 -15 89 20 30 32 30 113 -3
69 -29 171 -38 192 -17 11 11 -45 111 -88 157 -15 16 -77 60 -138 98 -61 38
-117 76 -124 85 -8 8 -31 24 -52 35 -31 16 -38 25 -38 48 0 17 6 31 16 35 40
15 455 -5 619 -31 127 -19 130 -19 177 12 21 14 70 33 108 41 88 20 107 39 90
90 -16 47 -82 120 -134 146 -21 11 -62 27 -90 35 -100 28 -189 66 -220 93
-130 113 -277 140 -781 146 -407 4 -692 27 -723 58 -41 40 44 148 187 236 53
32 114 75 136 95 22 20 70 54 108 77 129 78 405 333 441 410 9 18 57 80 106
138 99 116 141 186 167 281 16 56 18 112 18 444 l0 380 -43 122 c-23 66 -42
128 -42 137 0 66 -146 387 -224 494 -49 66 -124 122 -164 122 -29 0 -62 17
-62 32 0 15 150 4 220 -18 69 -20 132 -63 160 -109 12 -19 39 -76 61 -126 21
-51 65 -131 97 -178 32 -47 70 -106 84 -131 36 -62 139 -158 234 -219 80 -52
132 -73 337 -137 l118 -37 60 17 c136 38 263 121 396 259 211 220 319 426 385
731 l23 108 79 40 c120 60 206 158 206 234 0 15 -25 76 -55 136 -30 59 -55
115 -55 124 0 9 12 54 26 101 24 74 25 89 15 124 -7 22 -31 60 -55 84 -37 39
-48 45 -83 45 -58 0 -73 8 -73 39 0 59 -129 183 -248 237 -41 19 -104 54 -140
78 -69 46 -134 106 -115 106 43 0 351 -121 578 -228 83 -39 161 -73 175 -77
24 -6 24 -5 -5 20 -48 41 -354 189 -554 268 -101 40 -183 76 -183 82 1 13 217
74 267 74 53 1 246 -40 369 -78 54 -17 106 -31 115 -30 28 1 -101 58 -204 90
-202 62 -213 69 -144 93 46 16 159 79 190 106 l24 21 -29 -6 c-17 -3 -77 -29
-135 -56 -165 -78 -236 -93 -323 -68 -49 13 -48 26 4 40 107 28 436 224 502
298 11 11 15 21 10 21 -5 0 -65 -32 -134 -71 -172 -99 -388 -199 -427 -199
-17 0 19 79 72 160 41 61 93 117 227 240 32 29 71 76 87 104 45 81 108 118
267 157 95 23 203 67 169 68 -11 0 -51 -6 -90 -14 -38 -8 -78 -15 -87 -15 -29
0 -21 29 10 36 54 12 68 16 125 41 31 14 57 30 57 34 0 16 -47 9 -73 -11 -23
-18 -67 -28 -67 -15 0 3 15 18 32 34 18 16 30 33 26 37 -5 4 -44 -7 -89 -24
-44 -18 -84 -32 -90 -32 -22 0 -5 30 47 80 31 30 126 129 211 220 138 146 183
200 169 200 -2 0 -60 -50 -128 -111 -238 -216 -349 -302 -362 -281 -3 5 -8 29
-11 53 -4 24 -18 100 -32 168 -26 121 -26 124 -10 186 23 84 21 121 -7 272
-39 203 -39 208 -21 246 41 88 160 198 278 258 98 49 245 156 330 239 69 68
77 80 71 103 -5 22 3 41 35 91 100 153 175 350 173 455 0 38 7 89 19 125 23
73 23 85 5 92 -21 8 -72 -33 -106 -86 -68 -106 -181 -357 -195 -433 -8 -44
-21 -55 -30 -28 -8 26 7 81 62 224 25 64 43 120 39 124 -11 12 -76 -60 -103
-114 -14 -29 -30 -50 -35 -47 -5 4 -18 26 -28 50 -11 24 -24 44 -29 44 -14 0
-65 -68 -111 -146 -47 -80 -53 -109 -15 -74 93 87 -76 -206 -269 -467 -65 -89
-85 -102 -78 -52 4 30 4 31 -34 27 -33 -2 -39 0 -42 17 -1 11 2 27 8 35 8 13
11 13 19 1 14 -22 31 -3 31 34 0 27 12 47 53 95 28 34 59 74 68 89 8 16 50 58
92 95 42 37 77 72 77 77 0 6 -24 -3 -54 -20 -29 -17 -56 -31 -60 -31 -16 0 -3
38 32 94 69 109 70 115 8 59 -86 -79 -98 -71 -26 17 55 67 114 159 107 167
-20 19 -268 -198 -301 -264 -20 -40 -11 -41 35 -8 52 39 49 11 -9 -108 -28
-56 -60 -124 -72 -152 -24 -55 -131 -220 -179 -275 l-30 -35 -1 27 c0 16 22
88 49 160 27 73 56 156 65 185 10 28 24 57 32 63 16 14 20 110 4 110 -6 0 -30
-39 -53 -87 l-41 -87 -8 38 c-9 44 -25 76 -38 76 -5 0 -19 -24 -33 -52 -24
-53 -116 -164 -117 -141 0 6 11 24 24 40 49 59 62 113 27 113 -21 0 -87 -69
-113 -118 -18 -34 -34 -39 -60 -19 -22 16 -173 359 -186 422 -22 103 -24 151
-32 645 l-7 505 -32 120 c-31 117 -69 214 -95 245 -17 20 -34 91 -42 179 -4
39 -11 71 -17 71 -6 0 -8 -40 -4 -112z m137 -898 c0 -11 -4 -20 -10 -20 -5 0
-10 9 -10 20 0 11 5 20 10 20 6 0 10 -9 10 -20z m324 -1293 c29 -32 95 -154
111 -205 6 -20 4 -23 -12 -20 -11 2 -33 32 -56 77 -21 41 -53 94 -72 117 -19
23 -35 47 -35 53 0 22 33 10 64 -22z m-155 -34 c15 -60 22 -143 13 -143 -12 0
-42 101 -42 143 0 48 17 47 29 0z m356 -3 c9 -10 15 -26 12 -34 -7 -16 -69
-32 -86 -21 -14 8 -14 35 -1 35 6 0 10 -4 10 -10 0 -5 5 -10 10 -10 6 0 10 14
10 30 0 35 18 39 45 10z m-415 -78 c12 -44 13 -92 2 -92 -8 0 -32 93 -32 123
0 29 18 10 30 -31z m592 -50 c-12 -15 -38 -49 -57 -77 -31 -44 -35 -47 -35
-24 0 28 36 83 77 116 35 28 43 20 15 -15z m-392 -76 c0 -82 -19 -61 -26 30
-5 64 -4 68 10 50 11 -13 16 -40 16 -80z m-167 -21 c4 -8 2 -17 -3 -20 -6 -4
-10 3 -10 14 0 25 6 27 13 6z m13 -319 c-5 -122 -11 -246 -15 -276 l-7 -55 -8
48 c-9 51 -1 430 10 484 4 19 11 30 17 26 7 -4 8 -77 3 -227z m70 -243 c-4
-181 -11 -346 -16 -368 -6 -25 -8 90 -7 315 2 323 6 380 24 380 4 0 3 -147 -1
-327z m169 267 c10 -16 -16 -43 -28 -31 -11 11 -2 41 12 41 5 0 13 -5 16 -10z
m-57 -108 c14 -24 20 -157 8 -169 -4 -4 -11 -1 -15 6 -7 11 -11 10 -19 -5 -6
-10 -14 -16 -18 -12 -9 10 -9 159 1 228 l8 55 11 -40 c6 -22 17 -50 24 -63z
m146 -54 c-23 -44 -30 -20 -8 29 12 26 18 33 21 21 2 -9 -4 -32 -13 -50z m76
-9 c0 -11 -4 -17 -10 -14 -5 3 -10 13 -10 21 0 8 5 14 10 14 6 0 10 -9 10 -21z
m-20 -95 c0 -27 -5 -37 -19 -41 -11 -3 -21 -13 -24 -24 -13 -48 -42 -1 -35 57
3 28 13 34 71 43 4 0 7 -15 7 -35z m-128 -36 c-9 -20 -11 -18 -11 22 0 40 2
42 11 23 8 -17 8 -29 0 -45z m-142 -608 c0 -11 -4 -20 -10 -20 -5 0 -10 9 -10
20 0 11 5 20 10 20 6 0 10 -9 10 -20z m480 -73 c0 -14 -20 -37 -32 -37 -12 0
-10 24 4 38 16 16 28 15 28 -1z m-65 -64 c-7 -40 -45 -136 -51 -130 -5 5 15
114 27 143 14 39 32 29 24 -13z m-628 -105 c-2 -13 -4 -3 -4 22 0 25 2 35 4
23 2 -13 2 -33 0 -45z m388 -727 c7 -13 -15 -18 -105 -27 -67 -6 -73 -5 -62 9
8 9 26 18 40 20 53 8 121 7 127 -2z m-268 -222 c26 -10 27 -12 8 -19 -11 -5
-37 -9 -57 -9 -32 -1 -38 2 -38 19 0 15 7 20 29 20 16 0 42 -5 58 -11z m-56
-128 c-7 -12 -18 -21 -26 -21 -19 0 -19 5 1 36 21 30 42 17 25 -15z m335 -181
c51 -75 75 -162 57 -202 -11 -22 -12 -22 -12 -2 -1 28 -57 192 -76 220 -12 19
-21 22 -45 18 -26 -6 -31 -3 -41 22 -6 16 -13 45 -16 64 l-6 35 47 -45 c26
-25 67 -74 92 -110z m125 112 c60 -39 76 -60 88 -111 5 -23 18 -53 29 -64 30
-32 48 -112 31 -133 -12 -14 -14 -13 -21 7 -8 19 -11 21 -22 8 -8 -8 -21 -43
-30 -79 -21 -81 -58 -145 -96 -165 -16 -8 -55 -15 -87 -15 l-58 0 67 63 c85
79 92 104 85 285 -4 118 -7 138 -30 182 -30 59 -21 63 44 22z m279 -297 c30
-36 4 -209 -45 -305 -37 -74 -69 -104 -142 -138 -72 -33 -153 -51 -153 -35 0
5 32 27 71 49 111 61 159 125 159 215 0 29 -13 38 -25 19 -10 -17 -25 -11 -25
9 0 11 16 38 36 62 19 23 42 56 51 73 18 35 43 66 53 66 4 0 13 -7 20 -15z
m-247 -327 c12 -18 1 -56 -13 -42 -5 5 -12 22 -16 38 -5 21 -4 28 6 24 8 -2
18 -11 23 -20z m-135 -41 c29 -27 28 -45 -4 -57 -35 -14 -54 3 -54 45 0 51 11
53 58 12z m78 -23 c-6 -16 -8 -16 -23 -2 -9 10 -13 23 -9 34 6 16 8 16 23 2 9
-10 13 -23 9 -34z m395 -63 c54 -54 59 -73 29 -130 -26 -52 -87 -102 -152
-125 -29 -11 -59 -21 -65 -24 -28 -9 -11 31 26 65 52 47 71 96 71 188 0 70 1
75 21 75 13 0 43 -21 70 -49z m-215 -86 c18 -43 18 -86 0 -110 -24 -33 -46 -3
-46 60 0 90 20 112 46 50z m-76 -99 c0 -71 -22 -45 -27 31 -4 54 -3 57 11 39
10 -12 16 -40 16 -70z m-2403 39 c3 -9 3 -19 -1 -22 -8 -9 -37 18 -30 28 8 14
24 11 31 -6z m2443 -218 c0 -46 -26 -147 -40 -160 -10 -10 -11 -4 -7 23 4 19
9 64 13 100 4 36 9 68 11 73 9 16 23 -6 23 -36z m-1860 -493 c0 -13 -4 -24
-10 -24 -5 0 -10 14 -10 31 0 17 4 28 10 24 6 -3 10 -17 10 -31z m446 -134
c29 -22 65 -45 78 -52 39 -17 61 -108 26 -108 -6 0 -16 11 -22 25 -6 14 -30
36 -53 49 -40 24 -95 90 -95 114 0 19 9 15 66 -28z m-422 -210 c0 -106 -4
-174 -11 -190 -9 -20 -12 19 -12 190 0 163 3 209 11 190 6 -14 11 -95 12 -190z
m1202 9 l-14 -34 -1 41 c-1 23 5 56 12 75 l12 34 3 -41 c2 -23 -4 -57 -12 -75z
m-474 42 c59 -22 125 -44 147 -47 23 -4 44 -12 49 -18 14 -19 46 -136 38 -143
-9 -9 -20 4 -56 67 -31 53 -32 50 -14 -25 7 -29 -15 -35 -36 -11 -6 8 -28 16
-48 18 -34 3 -40 8 -71 68 -35 66 -50 69 -32 5 15 -57 -10 -38 -34 25 -24 62
-39 72 -52 33 l-10 -28 -21 42 c-12 23 -22 49 -22 57 0 18 13 14 162 -43z
m349 -42 c7 -22 21 -45 32 -51 17 -8 18 -17 13 -59 -6 -45 -5 -49 14 -49 31 0
24 -17 -11 -24 -49 -10 -94 -7 -112 7 -23 17 -62 156 -47 171 17 17 44 -7 50
-44 3 -18 11 -35 19 -38 11 -4 12 6 7 52 -4 30 -5 60 -1 66 12 20 24 9 36 -31z
m-1169 -431 c-9 -9 -12 -4 -11 23 0 32 1 33 11 11 8 -17 8 -26 0 -34z m-254
-220 c-1 -182 -2 -198 -8 -113 -12 156 -11 325 0 325 6 0 9 -76 8 -212z m210
128 c4 -35 -14 -26 -20 9 -4 16 -1 24 6 22 6 -2 12 -16 14 -31z m-52 -364 c16
-83 19 -156 5 -132 -14 24 -41 168 -40 214 0 38 1 39 10 16 6 -14 17 -58 25
-98z m-359 -35 c-2 -23 -3 -1 -3 48 0 50 1 68 3 42 2 -26 2 -67 0 -90z m-827
48 c0 -14 -4 -25 -10 -25 -5 0 -10 11 -10 25 0 14 5 25 10 25 6 0 10 -11 10
-25z m755 -47 c4 -17 3 -28 -3 -28 -10 0 -22 32 -22 60 0 22 18 -1 25 -32z
m-735 -48 c0 -11 -4 -20 -10 -20 -5 0 -10 9 -10 20 0 11 5 20 10 20 6 0 10 -9
10 -20z m907 -52 c-3 -7 -5 -2 -5 12 0 14 2 19 5 13 2 -7 2 -19 0 -25z m-167
18 c0 -2 -3 -11 -6 -20 -9 -23 -24 -20 -24 4 0 11 7 20 15 20 8 0 15 -2 15 -4z
m738 -68 c-30 -40 -117 -108 -138 -108 -8 0 7 19 35 43 27 23 63 54 80 69 41
37 53 35 23 -4z m-759 -272 c-30 -83 -72 -167 -104 -205 -15 -17 -35 -53 -46
-79 -18 -46 -18 -46 -19 -14 0 36 -6 39 -36 14 -31 -24 -49 -65 -70 -157 l-18
-80 -7 48 c-4 27 -10 51 -13 54 -12 12 -24 -10 -30 -54 -4 -27 -14 -70 -23
-98 -41 -130 -119 -228 -83 -105 6 19 19 88 30 153 18 116 30 147 55 147 22 0
118 112 153 178 36 68 41 72 92 87 40 12 52 32 103 165 31 83 32 84 35 46 2
-23 -6 -65 -19 -100z m-739 104 c0 -11 -4 -20 -10 -20 -5 0 -10 9 -10 20 0 11
5 20 10 20 6 0 10 -9 10 -20z m-55 -271 l-15 -34 6 54 c6 65 18 88 22 45 2
-17 -4 -47 -13 -65z m746 -122 l-61 -121 0 68 c0 37 5 77 11 89 15 29 103 108
108 95 1 -5 -24 -64 -58 -131z m-580 -534 c-33 -65 -57 -100 -64 -93 -10 11
43 146 65 164 35 28 35 -1 -1 -71z m144 -28 c0 -10 -6 -20 -12 -22 -8 -3 -13
5 -13 22 0 17 5 25 13 23 6 -3 12 -13 12 -23z m-605 -186 c-24 -60 -72 -129
-77 -112 -7 20 82 181 93 170 3 -2 -5 -29 -16 -58z m206 26 c-22 -17 -36 -19
-36 -7 0 14 12 22 34 22 21 -1 21 -1 2 -15z m-86 -27 c0 -15 -118 -133 -126
-125 -10 9 42 93 72 116 29 23 54 27 54 9z m1558 -2 c-10 -7 -64 -23 -120 -36
-131 -29 -236 -66 -412 -145 -159 -71 -186 -80 -186 -67 0 5 30 25 68 45 188
98 528 214 632 216 31 0 33 -1 18 -13z m-1498 -44 c0 -10 -23 -33 -56 -55 -54
-35 -55 -36 -39 -9 44 69 95 103 95 64z m1958 -13 c-21 -12 -196 -25 -186 -14
11 12 76 23 143 24 45 0 56 -2 43 -10z m-1018 -17 c0 -9 -124 -77 -160 -87
-36 -10 36 39 103 71 59 27 57 27 57 16z m-391 -38 c-13 -16 -39 -19 -39 -4 0
12 32 30 43 23 4 -3 3 -11 -4 -19z m996 -13 c-6 -5 -71 -27 -145 -50 -74 -22
-183 -56 -242 -75 -119 -38 -143 -31 -45 14 75 34 167 62 307 94 117 27 139
30 125 17z m-875 -15 c0 -9 -71 -48 -77 -43 -3 3 10 15 28 26 33 20 49 26 49
17z m1441 -31 c57 -20 149 -47 203 -61 148 -38 236 -90 236 -140 0 -42 -23
-46 -73 -13 -37 24 -72 35 -179 55 -152 28 -226 48 -280 75 -45 23 -98 25 -98
5 0 -29 168 -106 233 -106 17 0 50 -9 72 -19 44 -20 124 -93 108 -98 -5 -2
-43 12 -84 32 -60 28 -85 35 -135 35 -80 0 -268 32 -411 70 -129 34 -147 36
-212 14 -59 -19 -146 -16 -146 6 0 8 11 16 25 18 14 2 76 15 138 28 63 14 153
29 200 34 94 10 164 30 170 48 5 17 -33 15 -208 -12 -192 -31 -322 -59 -422
-92 -95 -32 -124 -26 -45 10 90 41 247 81 423 110 209 33 206 33 300 35 68 1
96 -4 185 -34z m-1121 -54 c0 -12 -29 -35 -36 -28 -11 10 5 37 21 37 8 0 15
-4 15 -9z m-1360 -111 c-26 -20 -50 -26 -50 -12 0 16 25 32 50 32 l25 0 -25
-20z m1580 -55 c33 -17 38 -25 16 -25 -14 0 -67 39 -53 40 4 0 21 -7 37 -15z
m335 5 c14 -6 -2 -9 -50 -9 -48 0 -64 3 -50 9 11 5 34 9 50 9 17 0 39 -4 50
-9z m878 -27 c-7 -2 -21 -2 -30 0 -10 3 -4 5 12 5 17 0 24 -2 18 -5z m-4145
-560 c-10 -2 -28 -2 -40 0 -13 2 -5 4 17 4 22 1 32 -1 23 -4z"/>
<path d="M9532 7685 c0 -16 2 -22 5 -12 2 9 2 23 0 30 -3 6 -5 -1 -5 -18z"/>
<path d="M4576 10661 c-3 -5 -10 -44 -16 -87 -26 -193 -33 -235 -56 -327 -34
-137 -55 -195 -149 -417 -110 -261 -158 -381 -152 -386 7 -7 200 389 241 492
78 201 145 474 153 625 4 63 2 98 -5 103 -6 3 -13 2 -16 -3z"/>
<path d="M2665 10601 c-18 -30 -43 -367 -55 -751 -9 -291 -28 -497 -51 -556
-5 -15 -19 -34 -29 -41 -15 -11 -20 -26 -20 -61 0 -56 -14 -86 -30 -62 -5 8
-10 26 -10 40 0 14 -9 43 -19 63 -17 33 -17 38 -4 46 20 11 8 31 -18 31 -18 0
-19 9 -19 223 0 207 12 448 27 561 4 32 3 47 -4 43 -17 -11 -31 -81 -57 -297
-14 -113 -29 -223 -33 -245 l-7 -40 -7 45 c-4 25 -8 74 -9 110 -2 36 -5 79 -9
95 -6 28 -8 25 -34 -45 -39 -102 -41 -142 -22 -310 22 -193 31 -824 16 -1090
-7 -107 -14 -276 -16 -375 -4 -165 -3 -176 9 -128 25 95 143 316 153 286 3 -7
-12 -65 -33 -130 -50 -160 -65 -218 -53 -206 27 27 193 456 254 659 20 65 38
120 40 123 10 9 4 -35 -10 -89 -27 -99 -14 -157 19 -91 31 58 105 397 121 551
4 36 15 79 25 95 10 17 28 84 40 150 11 65 23 121 25 124 12 11 13 -10 4 -69
-14 -96 -22 -388 -10 -370 24 38 70 466 57 534 -5 25 -14 40 -26 43 -24 6 -27
32 -35 253 -4 91 -11 187 -17 214 -9 43 -12 47 -22 30 -7 -12 -11 -93 -12
-234 0 -118 -5 -237 -10 -265 -8 -49 -9 -48 -15 49 -5 95 -7 100 -37 125 -17
14 -36 40 -42 56 -16 42 -14 252 5 437 17 176 23 397 11 446 -8 32 -19 41 -31
23z m42 -1108 c-3 -10 -5 -4 -5 12 0 17 2 24 5 18 2 -7 2 -21 0 -30z m60 -210
c-3 -10 -5 -4 -5 12 0 17 2 24 5 18 2 -7 2 -21 0 -30z m-60 -95 c-3 -7 -5 -2
-5 12 0 14 2 19 5 13 2 -7 2 -19 0 -25z m-201 -133 c7 -28 -13 -88 -27 -79 -5
3 -9 20 -9 39 0 62 24 89 36 40z m64 -196 c0 -10 -4 -19 -10 -19 -5 0 -10 12
-10 26 0 14 4 23 10 19 6 -3 10 -15 10 -26z m0 -113 c0 -14 -4 -28 -10 -31 -6
-4 -10 7 -10 24 0 17 5 31 10 31 6 0 10 -11 10 -24z m-20 -152 c0 -13 -4 -24
-10 -24 -5 0 -10 14 -10 31 0 17 4 28 10 24 6 -3 10 -17 10 -31z m-66 -290
c-9 -30 -21 -57 -25 -60 -16 -9 -9 34 13 93 27 72 37 46 12 -33z"/>
<path d="M4033 10507 c-6 -6 -18 -46 -27 -87 -23 -98 -69 -211 -181 -450 -50
-107 -97 -211 -105 -230 -14 -35 -77 -130 -87 -130 -8 0 2 68 42 314 36 214
42 290 25 301 -12 7 -25 -44 -44 -175 -21 -142 -35 -208 -48 -216 -8 -5 -9 11
-6 52 6 56 -3 108 -14 88 -11 -19 -17 -63 -33 -218 -20 -203 -43 -306 -117
-536 -48 -145 -61 -200 -62 -255 -2 -64 -7 -79 -60 -177 -61 -113 -72 -168
-17 -83 63 97 140 269 156 345 20 97 93 361 106 380 8 13 11 13 20 -2 14 -25
34 -22 59 10 41 50 315 616 349 717 34 101 71 272 71 325 0 33 -13 46 -27 27z"/>
<path d="M8956 10298 c-9 -258 -26 -510 -37 -528 -5 -9 -8 64 -7 172 2 173 -2
211 -18 195 -3 -3 -10 -95 -15 -204 -4 -109 -8 -201 -9 -205 0 -5 -4 -8 -10
-8 -5 0 -11 42 -12 93 -2 54 -7 91 -13 90 -5 -1 -15 -35 -21 -75 -7 -40 -24
-135 -38 -211 -14 -76 -26 -159 -26 -185 l1 -47 24 40 c14 22 42 73 62 113 52
105 103 133 103 56 0 -70 -138 -442 -194 -522 -38 -56 -64 -122 -82 -207 -21
-102 -14 -248 11 -223 3 3 16 70 30 150 27 163 42 209 95 289 111 165 162 361
180 686 14 258 31 453 41 453 16 0 21 -155 9 -281 -17 -184 1 -184 36 -2 22
116 22 260 0 343 -23 84 -27 90 -41 56 -12 -28 -12 -27 -19 25 -9 72 -25 129
-35 129 -5 0 -11 -87 -15 -192z m-127 -684 c-12 -44 -29 -68 -29 -41 0 22 29
92 35 85 2 -2 0 -22 -6 -44z"/>
<path d="M2153 10399 c-15 -15 -7 -35 32 -84 78 -99 127 -217 129 -314 4 -113
46 -78 46 37 0 125 -49 251 -125 328 -46 45 -63 52 -82 33z"/>
<path d="M4452 10223 c-45 -64 -312 -630 -312 -661 1 -15 2 -15 15 2 22 29
184 351 253 501 55 122 78 185 68 185 -3 0 -13 -12 -24 -27z"/>
<path d="M6930 10103 c-75 -177 -158 -344 -211 -428 -21 -34 -39 -67 -39 -74
0 -63 149 171 238 374 42 96 92 238 92 261 0 39 -23 0 -80 -133z"/>
<path d="M4716 10208 c-2 -13 -10 -63 -16 -113 -15 -107 -65 -287 -114 -410
-43 -105 -45 -123 -11 -72 31 45 109 236 135 331 38 134 48 286 19 286 -5 0
-11 -10 -13 -22z"/>
<path d="M3022 10119 c-5 -13 -12 -85 -15 -159 -3 -75 -11 -149 -17 -165 -7
-19 -15 -162 -20 -375 -5 -190 -13 -363 -18 -385 -5 -22 -17 -69 -26 -104 -27
-99 -14 -105 30 -14 21 46 42 83 47 83 4 0 7 -26 8 -57 l1 -58 23 70 c49 150
92 515 83 704 -4 73 -10 106 -26 136 -17 31 -22 57 -22 120 -1 151 -27 262
-48 204z m48 -679 c0 -21 -4 -42 -10 -45 -6 -4 -10 13 -10 45 0 32 4 49 10 45
6 -3 10 -24 10 -45z"/>
<path d="M3431 9924 c-6 -21 -20 -127 -31 -234 -22 -216 -44 -382 -65 -480
-18 -87 -5 -106 35 -50 41 58 78 300 87 576 4 126 2 197 -5 209 -9 17 -11 14
-21 -21z"/>
<path d="M8773 9898 c-6 -7 -15 -26 -21 -43 -8 -24 -11 -26 -11 -8 -1 28 -11
53 -22 53 -12 0 -29 -69 -29 -125 l-1 -50 -14 30 c-12 28 -13 21 -14 -85 -1
-63 -6 -206 -12 -316 -11 -193 -9 -254 10 -254 16 0 22 33 32 160 12 166 34
322 64 446 25 108 41 204 33 204 -3 0 -10 -6 -15 -12z"/>
<path d="M3267 9863 c-3 -5 -11 -79 -16 -164 -21 -310 -106 -696 -241 -1094
-54 -160 -54 -232 0 -118 94 199 212 625 261 943 25 162 32 411 13 430 -7 7
-14 8 -17 3z"/>
<path d="M8556 9748 c-3 -13 -6 -52 -7 -88 -2 -130 -28 -153 -45 -40 -7 41
-12 63 -13 48 -1 -38 -58 -177 -88 -217 -48 -62 -88 -200 -118 -398 -8 -57
-15 -105 -15 -108 0 -3 -4 -5 -10 -5 -5 0 -10 24 -10 53 -1 46 -2 50 -14 34
-9 -12 -17 -62 -22 -140 l-7 -122 -17 67 c-9 37 -20 71 -23 75 -4 3 -7 -42 -7
-101 0 -59 -5 -116 -10 -127 -7 -12 -7 -19 -1 -19 6 0 17 -21 24 -47 8 -27 18
-48 23 -48 5 0 12 19 16 43 4 23 16 54 28 69 11 14 20 41 20 60 0 18 7 50 16
71 9 20 27 100 40 177 21 123 30 153 76 245 29 58 60 115 71 127 10 11 21 41
24 65 7 50 18 68 43 68 10 0 20 -6 23 -12 3 -10 7 -10 17 -1 25 23 25 293 1
293 -5 0 -11 -10 -15 -22z"/>
<path d="M6833 9603 c-73 -85 -107 -133 -95 -133 12 0 117 117 145 161 32 49
2 32 -50 -28z"/>
<path d="M6563 9563 c-13 -8 -23 -19 -23 -24 0 -14 24 0 38 21 14 24 14 24
-15 3z"/>
<path d="M3942 9549 c-7 -11 -16 -53 -18 -92 -4 -49 -2 -67 4 -57 12 17 42
130 42 154 0 22 -13 20 -28 -5z"/>
<path d="M6417 9451 c-79 -76 -86 -104 -11 -47 26 20 52 36 59 36 15 0 45 43
45 65 0 27 -19 16 -93 -54z"/>
<path d="M4431 9380 c-18 -33 -30 -60 -27 -60 10 0 76 93 76 106 0 29 -18 12
-49 -46z"/>
<path d="M2076 9288 c-3 -29 -13 -152 -21 -273 -8 -121 -20 -285 -27 -365 -15
-181 -16 -209 -3 -212 27 -8 65 335 72 660 4 163 3 242 -4 242 -6 0 -13 -24
-17 -52z"/>
<path d="M8743 9300 c0 -25 2 -35 4 -22 2 12 2 32 0 45 -2 12 -4 2 -4 -23z"/>
<path d="M5802 9285 c-13 -29 -5 -33 14 -7 15 20 18 32 6 32 -5 0 -14 -11 -20
-25z"/>
<path d="M5500 9185 c-24 -25 -42 -47 -39 -50 3 -2 25 15 49 40 24 25 42 47
39 50 -3 2 -25 -15 -49 -40z"/>
<path d="M5380 9085 c-13 -14 -20 -28 -16 -32 9 -10 36 8 54 35 13 19 13 22 0
22 -8 0 -25 -11 -38 -25z"/>
<path d="M5644 8991 c-77 -70 -149 -150 -142 -157 3 -2 19 7 36 21 39 32 176
185 171 189 -2 2 -32 -21 -65 -53z"/>
<path d="M10315 8955 c-16 -13 -25 -24 -19 -25 6 0 21 11 34 25 30 32 24 32
-15 0z"/>
<path d="M4623 8928 c-28 -32 -36 -48 -23 -48 14 0 60 46 60 60 0 17 -15 12
-37 -12z"/>
<path d="M2156 8818 c-9 -206 -15 -420 -11 -416 22 21 55 428 41 501 -13 69
-24 37 -30 -85z"/>
<path d="M2965 8810 c-21 -23 -12 -39 13 -24 19 12 29 44 14 44 -5 0 -17 -9
-27 -20z"/>
<path d="M8100 8779 c0 -19 7 -44 16 -55 14 -18 15 -16 10 25 -6 56 -26 79
-26 30z"/>
<path d="M7976 8635 c7 -94 2 -109 -25 -82 -10 10 -15 8 -27 -7 -8 -11 -14
-28 -14 -39 0 -24 78 -206 99 -230 15 -17 16 -17 28 -1 17 23 16 114 -2 244
-30 207 -72 290 -59 115z"/>
<path d="M8449 8708 c-3 -37 5 -89 22 -143 10 -33 19 -79 19 -103 0 -43 0 -43
-57 -68 -64 -28 -98 -56 -119 -95 -33 -65 -42 -191 -11 -160 7 7 17 26 23 44
9 29 18 34 85 55 145 46 160 53 180 85 41 68 61 237 38 320 -15 55 -39 49 -39
-10 l-1 -48 -63 68 c-63 68 -75 77 -77 55z"/>
<path d="M2226 8633 c-3 -3 -6 -61 -5 -127 1 -135 13 -118 25 35 6 80 -1 111
-20 92z"/>
<path d="M1890 8505 c-24 -58 -50 -138 -50 -152 0 -32 20 2 45 77 26 78 30
135 5 75z"/>
<path d="M1997 8353 c-10 -9 -9 -63 1 -63 9 0 32 44 32 60 0 11 -23 13 -33 3z"/>
<path d="M6210 8314 c-14 -2 -59 -9 -100 -15 -182 -26 -589 -113 -730 -155
-107 -32 -295 -111 -311 -130 -23 -28 51 -15 164 30 170 67 447 135 817 201
167 30 250 51 250 65 0 10 -39 11 -90 4z"/>
<path d="M2203 8245 c0 -22 2 -30 4 -17 2 12 2 30 0 40 -3 9 -5 -1 -4 -23z"/>
<path d="M7683 8204 c-9 -23 27 -123 55 -154 l23 -25 -6 45 c-6 44 -48 150
-60 150 -3 0 -8 -7 -12 -16z"/>
<path d="M2673 8188 c-13 -16 -40 -69 -53 -104 -18 -46 9 -15 41 48 29 56 34
84 12 56z"/>
<path d="M3517 8157 c-27 -42 -203 -399 -259 -527 -31 -69 -77 -186 -103 -260
-26 -74 -78 -201 -117 -283 -38 -81 -72 -163 -75 -181 -5 -32 -4 -34 17 -29
23 6 23 5 16 -60 -5 -54 -4 -67 8 -67 18 0 31 33 60 155 68 279 217 710 321
930 92 193 158 345 151 345 -2 0 -11 -10 -19 -23z"/>
<path d="M7480 8039 c0 -20 45 -73 79 -92 41 -24 39 -6 -6 43 -41 47 -73 67
-73 49z"/>
<path d="M1528 8000 c-46 -71 -108 -387 -108 -547 0 -75 16 -92 25 -26 20 167
40 287 71 422 36 160 39 193 12 151z"/>
<path d="M7460 7956 c0 -18 38 -46 63 -46 17 0 17 2 6 16 -7 8 -25 22 -41 30
-25 13 -28 13 -28 0z"/>
<path d="M8864 7875 c3 -56 12 -123 21 -151 15 -50 39 -93 48 -84 7 7 -59 319
-68 328 -4 4 -5 -38 -1 -93z"/>
<path d="M2557 7950 c-14 -34 -25 -90 -17 -90 13 0 32 56 28 82 -3 17 -6 19
-11 8z"/>
<path d="M8700 7923 c0 -69 51 -223 73 -223 15 0 1 83 -29 172 -29 89 -44 106
-44 51z"/>
<path d="M1588 7920 c-16 -25 -34 -90 -25 -90 13 0 48 72 45 92 l-3 23 -17
-25z"/>
<path d="M8620 7895 c0 -31 36 -141 56 -172 22 -34 37 -29 29 10 -9 42 -64
175 -76 183 -5 3 -9 -6 -9 -21z"/>
<path d="M1902 7902 c-6 -5 -28 -47 -47 -94 -19 -48 -48 -112 -64 -145 -39
-78 -48 -127 -66 -360 -8 -109 -17 -216 -19 -238 -3 -26 -2 -34 4 -25 5 9 20
94 35 190 52 354 64 401 139 565 36 78 44 123 18 107z"/>
<path d="M7440 7901 c0 -10 31 -31 45 -31 11 0 -5 20 -26 30 -12 7 -19 7 -19
1z"/>
<path d="M8198 7848 c-9 -24 20 -137 48 -189 32 -57 72 -95 87 -80 6 6 -5 31
-30 68 -21 33 -47 89 -57 126 -18 67 -39 100 -48 75z"/>
<path d="M7416 7826 c6 -15 34 -30 42 -22 10 11 -9 36 -27 36 -14 0 -19 -5
-15 -14z"/>
<path d="M9060 7823 c0 -14 52 -198 57 -203 11 -10 -7 106 -23 153 -14 42 -34
71 -34 50z"/>
<path d="M8390 7739 c12 -16 24 -28 27 -25 7 6 -27 56 -39 56 -5 0 0 -14 12
-31z"/>
<path d="M4995 7749 c-58 -14 -137 -57 -246 -133 -98 -68 -147 -112 -137 -121
3 -3 47 22 97 57 138 96 229 146 284 158 51 11 77 25 77 41 0 11 -22 10 -75
-2z"/>
<path d="M2301 7690 c-6 -28 -11 -61 -11 -73 0 -40 19 3 26 61 8 69 -1 77 -15
12z"/>
<path d="M9024 7674 c7 -51 40 -134 59 -146 24 -15 26 -7 10 45 -16 56 -59
147 -70 147 -3 0 -3 -21 1 -46z"/>
<path d="M5355 7659 c-165 -95 -368 -241 -402 -289 -26 -37 8 -22 97 42 47 34
155 107 241 164 85 56 161 110 168 118 25 30 -12 18 -104 -35z"/>
<path d="M2563 7675 c-6 -16 -14 -40 -17 -52 -3 -13 -9 -32 -12 -43 -3 -11 -1
-20 5 -20 12 0 44 103 39 128 -2 12 -7 9 -15 -13z"/>
<path d="M7990 7684 c0 -20 113 -139 118 -124 5 13 -19 49 -65 101 -38 42 -53
48 -53 23z"/>
<path d="M4934 7675 c-10 -8 -14 -15 -7 -15 19 0 43 11 43 21 0 13 -14 11 -36
-6z"/>
<path d="M3392 7638 c-91 -150 -287 -719 -218 -634 9 11 16 30 16 41 0 31 14
69 95 260 75 177 140 353 132 361 -3 3 -14 -10 -25 -28z"/>
<path d="M7457 7654 c-14 -15 -6 -34 14 -34 14 0 19 5 17 17 -3 18 -20 27 -31
17z"/>
<path d="M1587 7597 c-3 -9 -12 -76 -18 -149 -18 -199 -2 -541 33 -722 11 -56
49 -119 63 -104 4 4 0 44 -9 90 -26 134 -35 255 -42 563 -7 285 -13 358 -27
322z"/>
<path d="M7950 7556 c0 -19 86 -106 105 -106 29 0 15 28 -36 74 -54 48 -69 55
-69 32z"/>
<path d="M8040 7554 c0 -17 61 -84 76 -84 21 0 17 14 -13 41 -43 39 -63 52
-63 43z"/>
<path d="M8630 7483 c0 -49 -6 -79 -20 -106 -11 -20 -20 -52 -20 -69 -1 -18
-7 -51 -15 -73 -21 -57 -19 -84 10 -142 47 -94 159 -175 243 -177 37 -1 48 4
72 31 38 42 50 90 50 198 0 74 -4 99 -24 141 -34 73 -90 132 -137 144 -24 7
-62 32 -99 66 l-60 56 0 -69z m155 -145 c33 -15 27 -32 -13 -36 -44 -4 -59
-25 -41 -60 7 -15 15 -30 17 -34 2 -4 -12 -8 -30 -10 -29 -3 -35 -8 -46 -45
-17 -52 -29 -55 -38 -7 -12 67 30 159 87 187 41 20 33 19 64 5z"/>
<path d="M7980 7403 c0 -11 54 -62 98 -92 39 -27 42 -14 5 21 -45 41 -103 81
-103 71z"/>
<path d="M4575 7363 c-59 -42 -125 -103 -125 -116 0 -5 18 4 40 20 47 35 143
124 138 128 -2 2 -26 -12 -53 -32z"/>
<path d="M5205 7349 c-117 -67 -314 -202 -350 -239 -39 -40 -12 -40 46 1 115
79 240 160 303 194 70 38 106 67 106 85 0 17 -13 12 -105 -41z"/>
<path d="M2937 7343 c-10 -18 -22 -45 -28 -59 -9 -24 -8 -26 6 -14 23 19 47
68 43 88 -3 13 -9 8 -21 -15z"/>
<path d="M2426 7331 c-8 -12 -36 -179 -36 -213 0 -16 4 -27 9 -24 10 6 27 92
36 184 7 58 4 74 -9 53z"/>
<path d="M1410 7306 c0 -18 17 -29 30 -21 8 5 7 11 -1 21 -15 18 -29 18 -29 0z"/>
<path d="M7970 7312 c0 -23 105 -90 118 -77 10 10 -78 85 -99 85 -11 0 -19 -4
-19 -8z"/>
<path d="M4684 7207 c-69 -55 -204 -180 -204 -189 0 -16 61 27 135 95 63 57
125 127 113 127 -2 0 -21 -15 -44 -33z"/>
<path d="M7980 7185 c0 -16 27 -32 37 -21 7 7 -16 36 -28 36 -5 0 -9 -7 -9
-15z"/>
<path d="M5131 7139 c-102 -68 -214 -178 -142 -139 50 26 5 -41 -50 -76 -22
-14 -44 -35 -48 -47 -5 -12 -18 -31 -30 -41 -14 -13 -19 -26 -15 -41 3 -12 -2
-39 -10 -60 -20 -47 -20 -51 -1 -35 21 17 81 127 89 163 4 15 13 27 20 27 18
0 80 69 101 113 9 19 48 65 86 102 38 37 68 69 66 72 -2 2 -32 -15 -66 -38z"/>
<path d="M8053 7153 c4 -3 24 -17 44 -29 36 -22 37 -23 12 -24 -14 0 -34 -7
-45 -15 -19 -15 -19 -15 1 -30 30 -24 79 -16 83 14 7 46 -6 70 -46 80 -43 13
-58 14 -49 4z"/>
<path d="M2820 7021 c0 -12 5 -21 10 -21 6 0 10 6 10 14 0 8 -4 18 -10 21 -5
3 -10 -3 -10 -14z"/>
<path d="M2363 6912 c-7 -29 -13 -76 -12 -105 l1 -52 14 55 c8 30 13 78 11
105 l-2 50 -12 -53z"/>
<path d="M7735 6927 c33 -52 429 -406 599 -537 18 -14 19 -14 8 7 -21 39 -443
432 -555 517 -56 42 -74 46 -52 13z"/>
<path d="M5037 6877 c-78 -91 -197 -277 -262 -412 -62 -126 -96 -227 -62 -180
8 11 56 98 106 193 97 183 143 262 223 380 27 39 47 72 44 72 -2 0 -25 -24
-49 -53z"/>
<path d="M3110 6864 c0 -14 4 -23 10 -19 6 3 10 15 10 26 0 10 -4 19 -10 19
-5 0 -10 -12 -10 -26z"/>
<path d="M5076 6812 c-15 -30 -25 -56 -23 -59 8 -8 59 86 54 99 -2 7 -16 -11
-31 -40z"/>
<path d="M8110 6830 c29 -41 272 -333 322 -388 22 -24 42 -42 44 -39 6 5 -138
210 -194 276 -105 123 -231 234 -172 151z"/>
<path d="M1700 6825 c0 -15 4 -24 10 -20 6 3 10 12 10 20 0 8 -4 17 -10 20 -6
4 -10 -5 -10 -20z"/>
<path d="M4603 6812 c-38 -32 -93 -100 -93 -115 0 -16 99 83 116 116 18 33 17
33 -23 -1z"/>
<path d="M2747 6753 c-57 -180 -132 -667 -110 -715 l11 -23 11 27 c5 15 17 93
26 174 16 159 48 385 71 503 7 41 12 76 10 78 -2 3 -11 -17 -19 -44z"/>
<path d="M5147 6755 c-17 -24 -235 -401 -265 -458 -10 -19 -11 -32 -4 -39 7
-7 25 17 55 74 116 216 167 308 200 362 21 33 37 66 37 73 0 17 -2 16 -23 -12z"/>
<path d="M5566 6755 c-41 -24 -35 -42 8 -25 24 9 45 36 35 44 -2 1 -21 -7 -43
-19z"/>
<path d="M7480 6735 c-10 -12 -7 -20 14 -46 33 -39 33 -55 -1 -71 -45 -22 -41
-40 8 -36 l44 3 3 60 c4 81 -3 105 -32 105 -13 0 -29 -7 -36 -15z"/>
<path d="M4382 6663 c-58 -79 -180 -269 -211 -330 -11 -23 -21 -50 -21 -61 0
-18 18 -42 31 -42 8 0 124 154 163 218 32 52 26 69 -9 27 -19 -24 -24 -26 -25
-12 0 21 35 92 92 185 22 37 42 70 45 75 2 4 0 7 -5 7 -6 0 -33 -30 -60 -67z"/>
<path d="M4982 6668 c-27 -43 -192 -380 -192 -391 0 -23 25 15 88 136 77 145
136 276 129 283 -3 3 -14 -10 -25 -28z"/>
<path d="M5337 6675 c-29 -27 -33 -35 -18 -35 5 0 19 14 31 30 26 37 23 38
-13 5z"/>
<path d="M5454 6671 c-43 -31 -82 -71 -69 -71 13 0 115 81 115 91 0 13 -3 12
-46 -20z"/>
<path d="M1720 6674 c0 -29 22 -104 31 -104 12 0 11 8 -2 70 -10 47 -29 69
-29 34z"/>
<path d="M7810 6655 c22 -27 226 -173 322 -232 51 -31 109 -70 128 -87 53 -48
184 -126 210 -126 23 0 23 0 4 21 -28 31 -128 101 -214 150 -41 23 -141 88
-221 145 -169 119 -209 144 -228 144 -11 0 -11 -3 -1 -15z"/>
<path d="M4453 6618 c-32 -34 -59 -78 -47 -78 7 0 41 40 67 82 25 37 18 36
-20 -4z"/>
<path d="M9014 6515 c10 -187 25 -219 23 -48 -2 106 -6 145 -16 155 -11 11
-13 -5 -7 -107z"/>
<path d="M8452 6584 c103 -189 225 -375 153 -234 -37 73 -133 228 -147 236 -6
4 -9 3 -6 -2z"/>
<path d="M4122 6523 c-74 -116 -166 -333 -142 -333 18 0 189 364 177 376 -2 3
-18 -17 -35 -43z"/>
<path d="M5877 6488 c-83 -85 -166 -195 -207 -277 -44 -88 -18 -73 60 36 36
49 92 121 126 159 73 83 97 119 91 136 -2 8 -30 -13 -70 -54z"/>
<path d="M7516 6519 c-14 -9 -16 -13 -5 -20 17 -10 70 0 89 17 12 12 9 14 -25
14 -22 0 -48 -5 -59 -11z"/>
<path d="M9070 6500 c0 -18 4 -29 10 -25 6 3 10 15 10 25 0 10 -4 22 -10 25
-6 4 -10 -7 -10 -25z"/>
<path d="M8951 6444 c4 -42 12 -81 18 -87 8 -8 11 -4 11 13 0 39 -22 150 -29
150 -4 0 -4 -34 0 -76z"/>
<path d="M5672 6464 c-12 -25 -18 -43 -12 -39 14 9 52 85 42 85 -4 0 -18 -21
-30 -46z"/>
<path d="M5363 6475 c-3 -9 -3 -18 0 -21 9 -9 27 6 27 22 0 19 -19 18 -27 -1z"/>
<path d="M7596 6459 c-18 -14 -24 -25 -18 -31 12 -12 39 1 66 31 19 21 19 21
-1 21 -11 0 -32 -10 -47 -21z"/>
<path d="M8887 6453 c-11 -10 -8 -43 3 -43 6 0 10 11 10 25 0 26 -2 29 -13 18z"/>
<path d="M5879 6383 c-40 -38 -78 -82 -85 -100 -8 -17 -18 -34 -24 -38 -5 -3
-10 -25 -10 -49 0 -29 -8 -52 -24 -75 -13 -17 -29 -52 -35 -77 -7 -25 -34 -91
-62 -146 -28 -55 -49 -102 -46 -104 8 -8 60 57 136 171 44 66 78 121 76 124
-3 2 -16 -4 -30 -13 -45 -29 -29 4 50 104 l75 95 -37 5 -38 5 73 76 c39 41 72
79 72 82 0 18 -26 1 -91 -60z"/>
<path d="M7655 6393 c-30 -39 -35 -54 -33 -87 2 -33 8 -43 29 -53 72 -34 97
-270 53 -488 -15 -74 -47 -124 -60 -92 -3 9 2 64 11 123 33 213 16 364 -42
372 -29 4 -49 -35 -79 -155 -12 -51 -38 -127 -58 -170 -19 -43 -56 -132 -81
-198 -26 -66 -62 -149 -82 -184 l-36 -64 21 -17 c19 -16 19 -20 7 -36 -21 -27
-18 -34 11 -34 l26 0 -26 -31 c-14 -17 -24 -35 -20 -40 16 -27 -26 -1 -87 53
-60 53 -72 60 -83 47 -16 -17 -63 -134 -73 -181 -7 -31 -8 -28 -18 30 -5 35
-14 64 -19 65 -30 6 -30 -155 -1 -200 12 -17 25 -23 54 -23 62 0 180 31 209
54 23 19 48 24 167 34 167 13 327 44 410 78 90 38 93 38 56 5 -19 -17 -70 -48
-113 -70 l-79 -39 123 -4 c110 -3 126 -6 154 -26 17 -13 50 -26 74 -29 39 -6
42 -5 36 15 -4 12 -1 33 7 49 8 15 17 72 21 125 12 180 76 368 158 461 l33 39
87 -36 c107 -44 142 -46 162 -8 l15 27 15 -37 c32 -74 45 -46 55 112 7 120 12
140 37 140 8 0 14 4 14 9 0 18 -44 41 -77 41 -25 0 -36 -6 -46 -27 -22 -43
-48 -128 -55 -181 -6 -37 -12 -48 -27 -50 -32 -4 -136 69 -235 164 -95 92
-106 93 -75 4 19 -53 19 -60 1 -60 -8 0 -27 16 -42 35 -15 20 -47 46 -73 58
-31 16 -51 33 -61 56 -53 117 -77 157 -102 169 -38 18 -35 33 9 57 21 11 37
25 36 30 -2 6 -31 12 -65 15 -61 5 -62 6 -71 40 -11 43 -44 88 -96 129 l-40
32 -36 -48z m-48 -345 c-3 -35 -10 -74 -16 -88 -8 -21 -10 -17 -10 31 -1 69 8
119 22 119 6 0 8 -23 4 -62z m-37 -208 c0 -11 -4 -20 -10 -20 -5 0 -10 9 -10
20 0 11 5 20 10 20 6 0 10 -9 10 -20z m538 -13 c3 -15 0 -16 -22 -6 -32 15
-34 32 -4 27 13 -2 24 -11 26 -21z m-408 -226 c0 -12 -29 -35 -36 -28 -11 10
5 37 21 37 8 0 15 -4 15 -9z m-90 -39 c0 -20 -59 -102 -73 -102 -12 0 2 40 29
83 26 40 44 48 44 19z m240 -48 c0 -44 1 -46 25 -42 60 12 3 -39 -92 -82 -35
-16 -63 -34 -63 -39 0 -15 4 -14 47 9 46 24 82 28 63 5 -6 -8 -31 -25 -54 -39
-23 -14 -64 -49 -89 -79 -41 -48 -55 -58 -117 -76 -152 -47 -176 -36 -42 19
148 61 100 66 -79 8 -59 -19 -103 -28 -115 -24 -18 7 -18 8 -2 17 10 5 52 18
93 29 42 11 104 34 138 52 65 35 157 117 157 141 0 29 41 67 71 67 20 0 30 5
31 18 1 9 2 24 4 32 1 8 2 18 3 23 1 4 6 7 11 7 6 0 10 -21 10 -46z m-102 -10
c-4 -20 -34 -41 -44 -31 -8 8 24 47 38 47 5 0 8 -7 6 -16z m-178 -163 c0 -29
-132 -91 -192 -91 -42 0 -34 6 74 56 97 44 118 50 118 35z m369 -38 c-25 -30
-102 -73 -132 -73 -42 0 -24 18 57 56 81 38 94 41 75 17z"/>
<path d="M5128 6377 c-15 -23 -38 -67 -52 -97 -29 -62 -21 -73 35 -50 32 13
40 33 12 28 -24 -4 -19 31 14 95 31 63 26 79 -9 24z"/>
<path d="M5262 6315 c-57 -86 -70 -132 -23 -77 37 43 84 129 79 144 -3 7 -28
-24 -56 -67z"/>
<path d="M5370 6350 c-6 -11 -18 -39 -26 -62 -20 -58 7 -33 31 28 18 47 15 71
-5 34z"/>
<path d="M5512 6335 c-14 -31 -15 -48 -3 -41 12 8 32 66 22 66 -4 0 -13 -11
-19 -25z"/>
<path d="M1617 6324 c-21 -21 8 -115 101 -330 76 -177 113 -291 157 -483 19
-85 35 -156 35 -158 0 -2 5 -3 10 -3 6 0 10 24 10 54 0 116 -54 323 -157 601
-83 224 -138 337 -156 319z"/>
<path d="M5561 6274 c-26 -33 -30 -74 -5 -53 14 12 44 61 44 74 0 13 -20 3
-39 -21z"/>
<path d="M4316 6242 c-30 -43 -31 -57 -4 -47 21 8 41 48 36 71 -3 15 -9 10
-32 -24z"/>
<path d="M7292 6099 c-16 -41 -44 -204 -40 -230 4 -22 6 -21 20 11 9 19 21 76
28 126 13 98 10 138 -8 93z"/>
<path d="M4156 5997 c-132 -224 -337 -718 -335 -808 l0 -34 14 30 c8 17 38 93
66 170 48 131 110 274 259 593 34 74 59 136 57 139 -3 2 -31 -38 -61 -90z"/>
<path d="M3210 6045 c-13 -14 -19 -25 -13 -25 5 0 20 11 33 25 13 14 19 25 13
25 -5 0 -20 -11 -33 -25z"/>
<path d="M7186 6020 c-7 -36 -25 -294 -20 -299 7 -8 36 73 45 128 13 82 11
154 -5 177 -14 18 -15 18 -20 -6z"/>
<path d="M5957 5898 c-80 -91 -117 -145 -117 -172 1 -20 1 -20 21 4 50 60 171
231 166 236 -2 3 -34 -28 -70 -68z"/>
<path d="M5746 5907 c-45 -62 -90 -147 -77 -147 11 0 131 174 131 189 0 22
-16 10 -54 -42z"/>
<path d="M6020 5868 c-34 -35 -89 -98 -123 -140 -33 -43 -68 -80 -79 -83 -28
-10 -44 -51 -63 -165 -25 -152 -86 -385 -140 -534 -25 -71 -54 -157 -62 -193
-16 -63 -16 -64 6 -87 16 -16 21 -33 19 -52 l-4 -29 -14 30 -13 30 -6 -30 -6
-30 -28 40 c-32 47 -33 41 -12 -95 8 -52 15 -106 15 -120 0 -21 -3 -19 -19 15
-10 22 -26 49 -35 60 -15 19 -15 18 -16 -20 0 -22 7 -71 15 -110 17 -82 18
-86 4 -62 -5 9 -14 17 -18 17 -12 0 -51 -113 -51 -148 0 -38 31 -122 61 -166
31 -45 86 -83 101 -68 8 8 0 23 -30 56 -43 46 -112 173 -112 203 1 15 4 14 20
-6 11 -13 20 -29 20 -36 0 -26 60 -93 101 -112 80 -37 169 -39 169 -4 0 9 -22
54 -50 100 -27 47 -47 87 -45 89 3 3 22 -6 42 -20 46 -30 96 -48 133 -48 61 0
224 71 275 120 17 16 49 36 73 45 23 10 47 26 53 37 13 24 67 48 109 48 36 0
89 -26 144 -69 48 -38 72 -40 80 -5 7 25 8 25 29 10 12 -9 45 -27 72 -41 28
-13 72 -40 100 -60 27 -20 51 -31 53 -25 2 6 -30 56 -72 111 -79 104 -116 166
-116 194 0 32 25 8 77 -70 61 -92 107 -143 140 -156 33 -12 175 -11 210 2 l28
10 -43 35 c-23 20 -42 42 -42 50 0 23 -28 28 -54 10 -17 -11 -23 -22 -19 -36
8 -30 -11 -24 -42 11 -23 29 -24 33 -10 49 21 23 19 31 -12 57 l-28 22 30 -2
c41 -3 36 23 -21 93 -24 30 -53 71 -64 91 -22 42 -88 115 -96 107 -5 -6 24
-128 58 -241 11 -37 18 -71 15 -74 -10 -9 -53 88 -81 179 -31 102 -52 127 -43
51 11 -97 -18 -71 -53 47 -26 90 -62 150 -90 150 -18 0 -20 7 -20 63 0 59 12
145 26 195 10 36 -15 26 -31 -12 -8 -18 -22 -62 -31 -97 -24 -88 -29 -90 -26
-6 3 81 -7 109 -32 88 -14 -12 -15 -7 -10 46 8 74 -7 89 -30 30 -22 -59 -66
-234 -66 -266 0 -14 -4 -33 -10 -41 -8 -12 -10 -12 -16 4 -6 16 -4 65 12 261
4 51 3 66 -5 55 -32 -44 -70 -276 -57 -345 9 -46 42 -67 109 -69 l52 -1 7 -50
c10 -82 35 -135 86 -185 49 -48 102 -134 90 -146 -13 -12 -72 20 -136 74 -54
46 -77 57 -125 61 -4 1 -17 17 -29 38 l-22 36 -10 -31 c-6 -17 -14 -33 -17
-37 -4 -3 -19 34 -34 82 -27 88 -56 155 -80 183 -7 8 -15 29 -19 45 -4 17 -20
44 -36 60 -16 17 -36 47 -45 68 -13 31 -20 37 -45 37 -17 0 -33 6 -36 13 -3 8
4 56 16 107 31 143 1 140 -51 -4 -20 -58 -24 -38 -9 50 6 32 12 71 15 87 6 39
-11 33 -34 -10 -29 -59 -45 -180 -38 -300 5 -83 3 -103 -6 -94 -20 20 -22 256
-2 352 19 98 37 135 79 170 42 36 120 186 146 284 14 51 37 105 66 149 69 109
57 117 -36 24z m-95 -230 c-11 -35 -57 -118 -66 -118 -4 0 6 32 23 70 29 65
58 98 43 48z m-225 -665 c0 -16 -7 -37 -16 -48 -10 -13 -13 -32 -9 -55 7 -46
-7 -69 -30 -50 -20 17 -14 71 15 137 21 49 40 56 40 16z m189 -10 c13 -47 14
-73 1 -93 -7 -11 -11 -8 -20 15 -17 44 -23 82 -17 100 11 26 26 17 36 -22z
m388 -95 c-3 -7 -5 -2 -5 12 0 14 2 19 5 13 2 -7 2 -19 0 -25z m173 -68 c0
-11 -4 -20 -10 -20 -5 0 -10 9 -10 20 0 11 5 20 10 20 6 0 10 -9 10 -20z
m-810 -70 c0 -41 -14 -61 -24 -34 -8 21 -8 69 0 77 14 13 24 -6 24 -43z m361
-15 c17 -35 29 -72 26 -82 -4 -19 -50 68 -62 120 -12 47 5 30 36 -38z m478
-58 c1 -38 -15 -26 -22 15 -6 44 4 72 14 38 4 -14 7 -38 8 -53z m-604 -5 c4
-20 9 -45 12 -54 2 -10 0 -18 -5 -18 -9 0 -32 81 -32 111 0 25 20 -5 25 -39z
m72 -39 c-3 -10 -5 -4 -5 12 0 17 2 24 5 18 2 -7 2 -21 0 -30z m-387 -95 c0
-18 -17 -7 -29 19 -13 28 -13 28 8 9 12 -11 21 -23 21 -28z m25 -141 c29 -96
33 -137 10 -97 -17 28 -55 145 -55 166 0 8 4 14 10 14 5 0 21 -37 35 -83z
m565 -7 c0 -16 -81 -33 -94 -20 -8 8 -7 13 4 20 20 13 90 13 90 0z m-142 -87
c-10 -2 -28 -2 -40 0 -13 2 -5 4 17 4 22 1 32 -1 23 -4z"/>
<path d="M3986 5857 c-76 -136 -126 -275 -95 -265 16 5 18 10 134 291 24 59
-1 43 -39 -26z"/>
<path d="M8790 5763 c-45 -17 -69 -86 -37 -111 25 -20 55 -23 71 -7 19 19 22
95 4 113 -13 13 -15 13 -38 5z"/>
<path d="M7287 5612 c-47 -140 -55 -172 -38 -172 16 0 49 63 65 125 15 62 32
185 24 185 -2 0 -25 -62 -51 -138z"/>
<path d="M4016 5468 c-65 -190 -84 -258 -73 -258 17 0 79 162 127 329 33 114
34 121 21 121 -5 0 -38 -87 -75 -192z"/>
<path d="M6896 5562 c-9 -11 -27 -41 -41 -68 l-25 -49 6 65 c5 64 5 65 -11 36
-35 -60 -55 -141 -61 -248 -9 -139 -28 -142 -32 -5 -1 53 -7 97 -12 97 -5 0
-15 -18 -21 -40 -10 -32 -10 -55 0 -107 23 -125 50 -147 119 -95 52 38 60 50
77 112 9 30 34 101 57 158 22 57 38 105 35 109 -3 3 -18 -4 -33 -16 -45 -35
-64 -20 -23 18 23 21 20 51 -4 51 -8 0 -21 -8 -31 -18z"/>
<path d="M4180 5494 c-33 -53 -90 -184 -90 -209 0 -26 21 -13 41 25 27 52 99
211 99 221 0 22 -23 5 -50 -37z"/>
<path d="M8290 5513 c-23 -30 -23 -30 4 -152 15 -70 38 -103 58 -83 16 16 13
95 -6 133 -9 18 -16 54 -16 81 0 55 -9 60 -40 21z"/>
<path d="M1125 5448 c4 -13 14 -34 23 -48 13 -20 17 -22 20 -8 4 20 -25 78
-39 78 -6 0 -8 -9 -4 -22z"/>
<path d="M5626 5356 c-16 -37 -69 -275 -81 -358 -8 -59 9 -65 32 -10 42 101
94 375 75 394 -7 7 -15 0 -26 -26z"/>
<path d="M6946 5313 c-9 -20 -20 -59 -23 -87 -6 -46 -5 -50 10 -38 15 13 57
122 57 149 0 26 -27 12 -44 -24z"/>
<path d="M6166 5307 c-45 -68 -111 -283 -78 -252 12 11 112 247 112 264 0 19
-19 12 -34 -12z"/>
<path d="M4486 5273 c-30 -41 -106 -166 -106 -176 0 -20 31 19 80 100 49 82
65 128 26 76z"/>
<path d="M6620 5227 c0 -62 82 -199 109 -182 20 12 11 44 -20 80 -17 19 -38
56 -48 82 -20 58 -41 68 -41 20z"/>
<path d="M1960 5224 c-13 -34 -13 -176 1 -211 9 -24 12 -26 20 -11 12 22 24
188 15 222 -8 33 -24 33 -36 0z"/>
<path d="M4493 5153 c-28 -49 -54 -99 -57 -113 -6 -22 -3 -21 27 13 57 63 116
187 89 187 -4 0 -31 -39 -59 -87z"/>
<path d="M8400 5215 c24 -64 70 -101 70 -56 0 24 -47 81 -66 81 -10 0 -11 -6
-4 -25z"/>
<path d="M8233 5194 c-8 -22 16 -44 48 -44 35 0 44 13 21 32 -26 23 -62 29
-69 12z"/>
<path d="M9373 5083 c3 -10 27 -69 52 -131 26 -62 59 -162 74 -223 15 -60 31
-113 36 -117 14 -13 -4 104 -35 223 -17 64 -28 121 -25 125 3 5 -4 14 -15 20
-11 6 -32 36 -45 66 -13 29 -29 54 -36 54 -6 0 -9 -8 -6 -17z"/>
<path d="M5390 5064 c-29 -75 -88 -533 -66 -513 14 13 91 527 81 538 -3 2 -9
-9 -15 -25z"/>
<path d="M5476 5060 c-9 -47 -7 -128 3 -134 14 -9 21 20 21 82 0 69 -14 99
-24 52z"/>
<path d="M4521 5005 c-36 -57 -67 -133 -57 -142 3 -4 12 2 20 12 20 27 78 166
72 172 -3 3 -19 -16 -35 -42z"/>
<path d="M9371 4948 c1 -32 23 -91 36 -95 8 -3 8 8 2 38 -15 67 -40 103 -38
57z"/>
<path d="M1892 4905 c0 -16 2 -22 5 -12 2 9 2 23 0 30 -3 6 -5 -1 -5 -18z"/>
<path d="M8667 4903 c-9 -9 33 -53 50 -53 21 0 15 27 -9 44 -25 18 -32 19 -41
9z"/>
<path d="M9037 4856 c-3 -8 -3 -17 0 -20 7 -7 33 13 33 25 0 15 -27 10 -33 -5z"/>
<path d="M8840 4815 c0 -37 10 -44 29 -21 9 11 10 20 1 35 -16 32 -30 25 -30
-14z"/>
<path d="M5257 4813 c-11 -10 -8 -113 3 -113 6 0 10 27 10 60 0 61 -1 65 -13
53z"/>
<path d="M4651 4695 c-23 -61 -27 -90 -11 -80 16 10 38 57 45 98 11 57 -10 45
-34 -18z"/>
<path d="M9380 4718 c0 -6 15 -71 34 -142 50 -190 60 -263 60 -431 0 -107 -7
-186 -22 -275 -12 -68 -20 -126 -18 -127 2 -2 10 16 19 39 75 202 71 512 -10
792 -35 123 -63 187 -63 144z"/>
<path d="M4477 4615 c-39 -78 -49 -128 -22 -105 8 6 28 47 45 91 33 86 34 89
22 89 -5 0 -25 -34 -45 -75z"/>
<path d="M6920 4663 c0 -26 105 -151 117 -140 8 8 -26 66 -64 108 -33 37 -53
49 -53 32z"/>
<path d="M4731 4595 c-23 -62 -25 -75 -12 -75 11 0 39 59 47 99 11 52 -13 36
-35 -24z"/>
<path d="M6850 4627 c0 -19 47 -61 54 -49 6 11 -30 62 -45 62 -5 0 -9 -6 -9
-13z"/>
<path d="M9516 4500 c12 -109 34 -238 46 -266 l12 -29 4 27 c2 15 -9 87 -23
160 -29 144 -49 199 -39 108z"/>
<path d="M6920 4531 c0 -13 50 -71 61 -71 18 0 8 27 -19 53 -29 28 -42 33 -42
18z"/>
<path d="M4840 4498 c-42 -68 -108 -248 -82 -223 9 9 73 153 102 231 13 34 3
30 -20 -8z"/>
<path d="M5016 4462 c-11 -19 -26 -173 -26 -275 0 -95 2 -108 13 -88 16 32 31
28 37 -9 3 -17 10 -31 15 -31 25 1 10 161 -15 161 -5 0 -12 -11 -16 -25 -3
-14 -10 -25 -14 -25 -9 0 -6 30 16 188 8 56 14 105 14 107 0 8 -18 6 -24 -3z"/>
<path d="M6990 4401 c0 -19 54 -61 78 -61 l26 0 -34 35 c-31 32 -70 47 -70 26z"/>
<path d="M1602 4320 c10 -30 28 -50 28 -31 0 17 -23 61 -31 61 -4 0 -3 -14 3
-30z"/>
<path d="M4338 4304 c-13 -20 -38 -127 -38 -162 0 -47 21 -36 38 19 13 45 13
163 0 143z"/>
<path d="M4824 3973 c7 -190 14 -243 29 -243 7 0 8 51 4 158 -8 185 -16 252
-30 252 -6 0 -8 -57 -3 -167z"/>
<path d="M153 3975 c3 -27 8 -58 12 -67 5 -13 2 -18 -9 -18 -24 0 -8 -29 20
-36 16 -4 51 -47 113 -139 132 -198 195 -280 199 -260 2 9 -30 67 -71 128 -82
122 -136 214 -190 322 -19 39 -45 81 -56 95 l-22 25 4 -50z"/>
<path d="M4923 3970 c0 -30 2 -43 4 -27 2 15 2 39 0 55 -2 15 -4 2 -4 -28z"/>
<path d="M4596 3924 c-9 -24 4 -264 15 -284 9 -17 14 79 10 200 -3 82 -13 115
-25 84z"/>
<path d="M4710 3855 c0 -25 5 -45 10 -45 6 0 10 20 10 45 0 25 -4 45 -10 45
-5 0 -10 -20 -10 -45z"/>
<path d="M0 3861 c0 -18 42 -61 61 -61 26 0 24 22 -4 48 -23 22 -57 30 -57 13z"/>
<path d="M4527 3840 c-3 -14 -8 -66 -9 -116 -2 -73 -7 -96 -21 -112 -15 -17
-18 -29 -12 -64 8 -49 44 -131 74 -168 26 -31 26 -33 6 152 -8 79 -19 186 -23
238 -6 61 -11 86 -15 70z m13 -353 c0 -16 -3 -17 -15 -7 -8 7 -15 24 -15 39 1
25 1 25 15 7 8 -11 15 -29 15 -39z"/>
<path d="M180 3785 c20 -52 53 -109 57 -98 6 17 -43 123 -56 123 -7 0 -7 -8
-1 -25z"/>
<path d="M60 3739 c0 -11 76 -201 187 -469 75 -179 185 -365 303 -513 37 -45
80 -103 98 -129 63 -92 288 -269 438 -344 51 -26 98 -44 105 -42 8 3 -38 38
-101 80 -63 41 -155 108 -205 150 -94 78 -225 211 -225 228 0 24 34 6 97 -52
86 -77 174 -143 235 -174 55 -28 58 -28 58 -11 0 8 -48 48 -107 90 -134 95
-312 252 -352 311 -17 24 -46 53 -64 64 -88 51 -238 303 -357 597 -72 178
-110 252 -110 214z"/>
<path d="M4286 3671 c-13 -21 -21 -191 -8 -191 11 0 26 126 20 175 -2 22 -5
26 -12 16z"/>
<path d="M4070 3655 c0 -38 31 -315 41 -362 12 -59 29 -71 29 -20 0 45 -28
281 -41 345 -10 48 -29 73 -29 37z"/>
<path d="M9400 3641 c0 -12 5 -21 10 -21 6 0 10 6 10 14 0 8 -4 18 -10 21 -5
3 -10 -3 -10 -14z"/>
<path d="M4612 3575 c0 -16 2 -22 5 -12 2 9 2 23 0 30 -3 6 -5 -1 -5 -18z"/>
<path d="M4361 3468 c-1 -37 4 -79 11 -95 l12 -28 3 40 c2 22 -3 65 -11 95
l-14 55 -1 -67z"/>
<path d="M4007 3459 c2 -35 15 -153 29 -261 13 -108 24 -204 24 -212 0 -9 5
-16 10 -16 18 0 11 100 -21 320 -31 210 -52 296 -42 169z"/>
<path d="M6901 3437 c7 -15 16 -27 21 -27 14 0 9 16 -13 36 -21 19 -21 19 -8
-9z"/>
<path d="M3825 3250 c19 -141 39 -249 50 -275 l13 -30 1 27 c1 41 -49 302 -60
313 -7 7 -8 -5 -4 -35z"/>
<path d="M7224 3135 c17 -90 36 -232 42 -318 4 -67 10 -97 17 -94 8 3 11 36
10 105 -1 103 -13 180 -40 267 -18 58 -38 86 -29 40z"/>
<path d="M3974 3017 c2 -27 9 -54 15 -60 17 -17 13 41 -4 78 l-15 30 4 -48z"/>
<path d="M3393 2860 c0 -36 2 -50 4 -32 2 17 2 47 0 65 -2 17 -4 3 -4 -33z"/>
<path d="M3393 2615 c17 -275 163 -880 253 -1045 29 -54 97 -105 131 -98 14 2
6 15 -35 60 -91 101 -138 217 -212 523 -61 253 -98 436 -109 548 -5 49 -14 94
-21 100 -10 10 -11 -9 -7 -88z"/>
<path d="M6416 2473 c-13 -228 -37 -432 -61 -533 -14 -57 -24 -111 -23 -119 2
-9 20 26 42 77 29 72 43 93 61 98 13 3 30 13 38 22 21 24 37 121 36 221 l-1
86 -26 -132 c-15 -72 -30 -134 -33 -137 -3 -4 -6 108 -5 248 1 180 -2 258 -10
266 -9 9 -13 -15 -18 -97z"/>
<path d="M5607 2511 c-4 -18 -7 -73 -7 -121 0 -105 -5 -120 -36 -120 -13 0
-24 -3 -24 -7 0 -5 7 -62 15 -128 36 -288 3 -686 -69 -838 l-24 -52 -1 46 c-1
25 8 94 19 154 37 202 50 615 19 615 -5 0 -9 -6 -9 -12 -6 -204 -23 -451 -35
-512 -31 -157 -83 -346 -96 -346 -17 0 -8 68 37 285 40 195 46 238 49 380 2
88 2 153 0 145 -10 -33 -115 -681 -124 -772 -15 -136 -14 -279 3 -300 23 -31
28 -20 21 45 -4 41 -2 79 6 107 12 44 13 45 18 15 10 -50 33 -41 110 41 73 78
96 123 46 90 -14 -9 -25 -15 -25 -12 0 2 14 36 30 75 49 115 80 245 87 364 3
59 10 110 15 113 4 3 8 -1 8 -8 0 -25 21 -193 26 -215 9 -35 33 -28 51 15 11
25 17 74 19 157 l3 120 -14 -85 c-8 -47 -18 -101 -21 -120 l-7 -35 -9 30 c-20
70 -56 542 -59 780 -1 50 -4 101 -8 115 -7 24 -7 24 -14 -9z m-2 -332 c7 -33
3 -45 -14 -34 -13 8 -15 65 -2 65 5 0 12 -14 16 -31z"/>
<path d="M6161 2243 c-5 -38 -17 -120 -26 -183 -25 -183 -78 -369 -120 -420
-7 -8 -25 -37 -41 -64 l-28 -50 32 24 c105 78 178 314 207 666 9 103 -9 122
-24 27z"/>
<path d="M6247 2163 c-35 -119 -77 -281 -77 -296 0 -17 3 -16 21 7 37 47 61
126 67 219 4 82 1 108 -11 70z"/>
<path d="M5977 2154 c-3 -6 -13 -72 -21 -145 -28 -250 -93 -503 -175 -681 -17
-37 -31 -75 -31 -84 0 -16 2 -15 20 1 29 26 72 122 118 265 53 163 78 292 93
471 11 145 10 195 -4 173z"/>
<path d="M3580 2067 c0 -65 103 -417 122 -417 5 0 7 8 4 18 -4 15 -56 207 -91
341 -15 57 -35 90 -35 58z"/>
<path d="M6027 1860 c-23 -97 -31 -160 -19 -140 16 25 44 156 40 186 -2 22 -8
10 -21 -46z"/>
<path d="M6410 1865 c0 -14 5 -25 10 -25 6 0 10 11 10 25 0 14 -4 25 -10 25
-5 0 -10 -11 -10 -25z"/>
<path d="M5858 1860 c-3 -8 -18 -63 -32 -122 -46 -189 -81 -259 -147 -294 -16
-8 -46 -39 -66 -70 -31 -47 -37 -66 -44 -137 -4 -45 -11 -92 -14 -104 -4 -13
-3 -23 3 -23 15 0 38 40 80 137 21 49 58 116 81 150 76 112 157 352 149 441
-2 22 -6 31 -10 22z m-238 -573 c0 -14 -20 -37 -32 -37 -12 0 -10 24 4 38 16
16 28 15 28 -1z"/>
<path d="M3725 1825 c13 -79 97 -313 159 -440 73 -150 120 -219 142 -211 11 4
14 1 9 -13 -4 -14 3 -24 31 -40 20 -12 41 -35 47 -51 13 -35 32 -41 22 -7 -9
29 -93 207 -98 207 -2 0 -3 -9 -3 -20 2 -48 -24 -13 -94 126 -42 82 -104 219
-139 304 -75 182 -85 200 -76 145z"/>
<path d="M6522 1807 c-7 -15 -14 -40 -17 -55 -5 -23 -3 -21 15 11 12 21 19 46
17 55 -3 13 -7 10 -15 -11z"/>
<path d="M3990 1801 c0 -26 10 -51 21 -51 5 0 9 16 9 35 0 24 -5 35 -15 35 -8
0 -15 -9 -15 -19z"/>
<path d="M4343 1645 c0 -44 2 -61 4 -37 2 23 2 59 0 80 -2 20 -4 1 -4 -43z"/>
<path d="M6217 1668 c-13 -18 -39 -60 -57 -93 -41 -73 -90 -142 -153 -215 -50
-56 -84 -110 -70 -110 5 0 19 9 33 20 26 20 50 26 50 12 0 -4 -16 -32 -35 -62
-36 -55 -115 -245 -115 -274 0 -35 33 -12 75 53 25 38 66 94 93 125 54 64 100
142 89 152 -4 4 -24 -5 -44 -19 -47 -34 -55 -18 -14 29 38 42 78 120 130 251
38 97 57 163 47 163 -3 0 -16 -15 -29 -32z"/>
<path d="M6503 1470 c-26 -43 -32 -72 -16 -77 17 -6 45 53 41 85 l-3 27 -22
-35z"/>
<path d="M5281 1418 c-7 -18 -16 -121 -21 -228 -11 -229 -12 -245 -5 -238 3 2
14 96 25 209 10 112 22 223 24 247 7 50 -7 56 -23 10z"/>
<path d="M4550 1417 c0 -37 20 -130 31 -141 14 -15 11 42 -5 103 -17 62 -26
75 -26 38z"/>
<path d="M2450 1425 c0 -10 106 -75 123 -75 29 0 10 18 -53 50 -60 30 -70 34
-70 25z"/>
<path d="M3802 1413 c2 -5 10 -25 18 -45 13 -35 30 -51 30 -28 0 17 -33 80
-43 80 -5 0 -7 -3 -5 -7z"/>
<path d="M6294 1388 c-12 -13 -47 -63 -78 -113 -32 -49 -84 -117 -115 -150
-66 -68 -91 -103 -91 -124 0 -22 121 100 191 193 61 80 123 190 117 207 -2 6
-13 0 -24 -13z"/>
<path d="M5186 1322 c-16 -26 -38 -152 -43 -242 -6 -105 10 -244 28 -256 5 -3
9 71 10 178 0 101 4 216 8 256 7 72 6 79 -3 64z"/>
<path d="M4302 1259 c1 -12 8 -24 15 -26 7 -3 9 3 6 17 -8 29 -25 37 -21 9z"/>
<path d="M4110 1246 c0 -28 49 -92 50 -65 0 25 -29 89 -40 89 -6 0 -10 -11
-10 -24z"/>
<path d="M4460 1238 c0 -42 15 -67 30 -52 8 8 7 21 -4 48 -19 45 -26 46 -26 4z"/>
<path d="M3848 1204 c13 -24 40 -49 47 -42 3 2 -9 18 -26 34 -24 22 -29 24
-21 8z"/>
<path d="M4190 1184 c0 -3 10 -19 21 -36 l22 -30 -32 7 c-41 9 -42 -12 -1 -27
31 -10 36 -35 6 -30 -20 4 -21 -24 -1 -32 28 -10 15 -26 -21 -26 l-36 0 31
-35 c17 -20 31 -41 31 -47 0 -7 13 0 28 15 15 15 36 27 45 27 28 0 30 25 7 77
-38 85 -100 171 -100 137z"/>
<path d="M4431 1160 c-1 -35 40 -120 47 -100 3 8 11 -19 18 -60 7 -41 15 -84
19 -95 14 -40 -42 32 -85 110 -23 42 -45 74 -48 70 -8 -7 91 -202 122 -240 24
-29 25 -29 39 -11 14 19 16 19 42 2 15 -10 39 -37 53 -61 74 -122 27 20 -73
220 -52 103 -75 140 -88 140 -10 0 -25 11 -32 25 l-14 25 0 -25z"/>
<path d="M5690 1099 c-19 -40 -50 -93 -69 -118 -40 -53 -51 -88 -51 -159 0
-67 13 -92 47 -92 25 0 26 1 8 20 -36 39 -29 160 9 160 19 0 26 -23 26 -83 0
-79 16 -123 56 -153 42 -33 97 -36 139 -9 l29 20 -62 3 c-46 2 -62 7 -62 17 0
8 8 15 18 15 10 0 26 6 36 13 17 13 17 16 -8 65 -33 65 -33 76 4 154 16 34 30
71 30 81 0 26 -26 21 -49 -10 l-22 -28 3 35 c2 28 -1 37 -19 45 -17 7 -23 19
-25 54 l-3 44 -35 -74z"/>
<path d="M3900 1121 c0 -13 80 -101 92 -101 12 0 -15 44 -50 83 -26 27 -42 34
-42 18z"/>
<path d="M5073 1080 c0 -25 2 -35 4 -22 2 12 2 32 0 45 -2 12 -4 2 -4 -23z"/>
<path d="M4650 1083 c0 -19 11 -43 21 -43 13 0 11 14 -6 36 -8 10 -15 14 -15
7z"/>
<path d="M4922 995 c0 -16 2 -22 5 -12 2 9 2 23 0 30 -3 6 -5 -1 -5 -18z"/>
<path d="M3976 948 c16 -18 82 -88 147 -155 64 -67 117 -129 117 -137 0 -7
-13 -16 -30 -19 -37 -8 -40 -34 -5 -43 17 -4 32 -1 43 9 9 8 26 17 37 19 11 2
21 11 23 20 6 29 -223 271 -303 320 -48 29 -63 22 -29 -14z"/>
<path d="M4340 899 c0 -20 110 -140 149 -162 52 -31 37 2 -31 69 -100 95 -118
109 -118 93z"/>
<path d="M5087 857 c-8 -20 2 -75 14 -83 10 -6 10 39 0 76 -6 21 -8 22 -14 7z"/>
<path d="M4963 731 c3 -24 11 -49 17 -55 10 -8 11 -1 7 33 -3 24 -11 49 -17
55 -10 8 -11 1 -7 -33z"/>
</g>
</svg>
